<?xml version="1.0" encoding="UTF-8" standalone="no"?>
<!DOCTYPE svg PUBLIC "-//W3C//DTD SVG 1.1//EN"
 "http://www.w3.org/Graphics/SVG/1.1/DTD/svg11.dtd">
<!-- Generated by graphviz version 2.32.0 (20130827.0619)
 -->
<!-- Title: g Pages: 1 -->
<svg width="798pt" height="266pt"
 viewBox="0.00 0.00 798.00 266.00" xmlns="http://www.w3.org/2000/svg" xmlns:xlink="http://www.w3.org/1999/xlink">
<g id="graph0" class="graph" transform="scale(1 1) rotate(0) translate(4 262)">
<title>g</title>
<defs>
<linearGradient id="l_0" gradientUnits="userSpaceOnUse" x1="-4" y1="-128.5" x2="795" y2="-128.5" >
<stop offset="0" style="stop-color:white;stop-opacity:1.;"/>
<stop offset="1" style="stop-color:lightyellow;stop-opacity:1.;"/>
</linearGradient>
</defs>
<polygon fill="url(#l_0)" stroke="none" points="-4,5 -4,-262 795,-262 795,5 -4,5"/>
<!-- hash -->
<g id="node1" class="node"><title>hash</title>
<polygon fill="lightblue" stroke="black" points="0.3512,-217 0.3512,-253 117.649,-253 117.649,-217 0.3512,-217"/>
<text text-anchor="middle" x="59" y="-230.6" font-family="Times,serif" font-size="16.00">SharedBufHash</text>
</g>
<!-- segment -->
<g id="node2" class="node"><title>segment</title>
<polygon fill="white" stroke="black" points="154.457,-217 154.457,-253 289.543,-253 289.543,-217 154.457,-217"/>
<text text-anchor="middle" x="222" y="-230.6" font-family="Times,serif" font-size="16.00">HASHSEGMENT</text>
</g>
<!-- hash&#45;&gt;segment -->
<g id="edge1" class="edge"><title>hash:f0&#45;&gt;segment:f0</title>
<path fill="none" stroke="black" d="M117.847,-235C126.46,-235 135.44,-235 144.358,-235"/>
<polygon fill="black" stroke="black" points="144.378,-238.5 154.378,-235 144.378,-231.5 144.378,-238.5"/>
</g>
<!-- bucket -->
<g id="node3" class="node"><title>bucket</title>
<polygon fill="white" stroke="black" points="326.232,-217 326.232,-253 449.768,-253 449.768,-217 326.232,-217"/>
<text text-anchor="middle" x="388" y="-230.6" font-family="Times,serif" font-size="16.00">HASHBUCKET</text>
</g>
<!-- segment&#45;&gt;bucket -->
<g id="edge2" class="edge"><title>segment:f0&#45;&gt;bucket:f0</title>
<path fill="none" stroke="black" d="M289.998,-235C298.557,-235 307.336,-235 315.955,-235"/>
<polygon fill="black" stroke="black" points="315.977,-238.5 325.977,-235 315.977,-231.5 315.977,-238.5"/>
</g>
<!-- element -->
<g id="node4" class="node"><title>element</title>
<polygon fill="lightyellow" stroke="black" points="485.905,-45.6 485.905,-258.4 620.095,-258.4 620.095,-45.6 485.905,-45.6"/>
<text text-anchor="middle" x="553" y="-240" font-family="Times,serif" font-size="16.00">HASHELEMENT</text>
<text text-anchor="middle" x="553" y="-220.8" font-family="Times,serif" font-size="16.00">			</text>
<polyline fill="none" stroke="black" points="485.905,-212 620.095,-212 "/>
<text text-anchor="middle" x="553" y="-193.6" font-family="Times,serif" font-size="16.00">*link</text>
<text text-anchor="middle" x="553" y="-174.4" font-family="Times,serif" font-size="16.00">			</text>
<polyline fill="none" stroke="black" points="485.905,-165.6 620.095,-165.6 "/>
<text text-anchor="middle" x="553" y="-147.2" font-family="Times,serif" font-size="16.00">hashvalue</text>
<text text-anchor="middle" x="553" y="-128" font-family="Times,serif" font-size="16.00">			</text>
<polyline fill="none" stroke="black" points="485.905,-119.2 620.095,-119.2 "/>
<text text-anchor="middle" x="553" y="-100.8" font-family="Times,serif" font-size="16.00">BufferTag key</text>
<text text-anchor="middle" x="553" y="-81.6" font-family="Times,serif" font-size="16.00">			</text>
<polyline fill="none" stroke="black" points="485.905,-72.8 620.095,-72.8 "/>
<text text-anchor="middle" x="553" y="-54.4" font-family="Times,serif" font-size="16.00">int id</text>
</g>
<!-- bucket&#45;&gt;element -->
<g id="edge3" class="edge"><title>bucket:f0&#45;&gt;element:f0</title>
<path fill="none" stroke="black" d="M449.949,-235C458.454,-235 467.196,-235 475.728,-235"/>
<polygon fill="black" stroke="black" points="476,-238.5 486,-235 476,-231.5 476,-238.5"/>
</g>
<!-- 1element -->
<g id="node5" class="node"><title>1element</title>
<polygon fill="lightyellow" stroke="black" points="655.905,0.4 655.905,-212.4 790.095,-212.4 790.095,0.4 655.905,0.4"/>
<text text-anchor="middle" x="723" y="-194" font-family="Times,serif" font-size="16.00">HASHELEMENT</text>
<text text-anchor="middle" x="723" y="-174.8" font-family="Times,serif" font-size="16.00">			</text>
<polyline fill="none" stroke="black" points="655.905,-166 790.095,-166 "/>
<text text-anchor="middle" x="723" y="-147.6" font-family="Times,serif" font-size="16.00">*link</text>
<text text-anchor="middle" x="723" y="-128.4" font-family="Times,serif" font-size="16.00">			</text>
<polyline fill="none" stroke="black" points="655.905,-119.6 790.095,-119.6 "/>
<text text-anchor="middle" x="723" y="-101.2" font-family="Times,serif" font-size="16.00">hashvalue</text>
<text text-anchor="middle" x="723" y="-82" font-family="Times,serif" font-size="16.00">			</text>
<polyline fill="none" stroke="black" points="655.905,-73.2 790.095,-73.2 "/>
<text text-anchor="middle" x="723" y="-54.8" font-family="Times,serif" font-size="16.00">BufferTag key</text>
<text text-anchor="middle" x="723" y="-35.6" font-family="Times,serif" font-size="16.00">			</text>
<polyline fill="none" stroke="black" points="655.905,-26.8 790.095,-26.8 "/>
<text text-anchor="middle" x="723" y="-8.4" font-family="Times,serif" font-size="16.00">int id</text>
</g>
<!-- element&#45;&gt;1element -->
<g id="edge4" class="edge"><title>element:f1&#45;&gt;1element:f0</title>
<path fill="none" stroke="black" d="M620,-189C632,-189 637.25,-189 645.875,-189"/>
<polygon fill="black" stroke="black" points="646,-192.5 656,-189 646,-185.5 646,-192.5"/>
</g>
</g>
</svg>
