<?xml version="1.0" encoding="UTF-8" standalone="no"?>
<!DOCTYPE svg PUBLIC "-//W3C//DTD SVG 1.1//EN"
 "http://www.w3.org/Graphics/SVG/1.1/DTD/svg11.dtd">
<!-- Generated by graphviz version 2.32.0 (20130827.0619)
 -->
<!-- Title: g Pages: 1 -->
<svg width="464pt" height="862pt"
 viewBox="0.00 0.00 464.00 862.00" xmlns="http://www.w3.org/2000/svg" xmlns:xlink="http://www.w3.org/1999/xlink">
<g id="graph0" class="graph" transform="scale(1 1) rotate(0) translate(4 858)">
<title>g</title>
<polygon fill="white" stroke="white" points="-4,5 -4,-858 461,-858 461,5 -4,5"/>
<!-- catcache -->
<g id="node1" class="node"><title>catcache</title>
<polygon fill="lightblue" stroke="black" points="0.308,0.1 0.308,-854.1 455.692,-854.1 455.692,0.1 0.308,0.1"/>
<text text-anchor="middle" x="228" y="-835.7" font-family="Times,serif" font-size="16.00">struct catcache</text>
<text text-anchor="middle" x="228" y="-816.5" font-family="Times,serif" font-size="16.00">		</text>
<polyline fill="none" stroke="black" points="0.308,-807.7 455.692,-807.7 "/>
<text text-anchor="middle" x="228" y="-789.3" font-family="Times,serif" font-size="16.00">int id;	/* cache identifier &#45;&#45;&#45; see syscache.h */</text>
<text text-anchor="middle" x="228" y="-770.1" font-family="Times,serif" font-size="16.00">		</text>
<polyline fill="none" stroke="black" points="0.308,-761.3 455.692,-761.3 "/>
<text text-anchor="middle" x="228" y="-742.9" font-family="Times,serif" font-size="16.00">struct catcache *cc_next; /* link to next catcache */</text>
<text text-anchor="middle" x="228" y="-723.7" font-family="Times,serif" font-size="16.00">		</text>
<polyline fill="none" stroke="black" points="0.308,-714.9 455.692,-714.9 "/>
<text text-anchor="middle" x="228" y="-696.5" font-family="Times,serif" font-size="16.00">const char *cc_relname; /* name of relation the tuples come from */</text>
<text text-anchor="middle" x="228" y="-677.3" font-family="Times,serif" font-size="16.00">		</text>
<polyline fill="none" stroke="black" points="0.308,-668.5 455.692,-668.5 "/>
<text text-anchor="middle" x="228" y="-650.1" font-family="Times,serif" font-size="16.00">Oid	cc_reloid;	/* OID of relation the tuples come from */</text>
<text text-anchor="middle" x="228" y="-630.9" font-family="Times,serif" font-size="16.00">		</text>
<polyline fill="none" stroke="black" points="0.308,-622.1 455.692,-622.1 "/>
<text text-anchor="middle" x="228" y="-603.7" font-family="Times,serif" font-size="16.00">Oid	cc_indexoid;	/* OID of index matching cache keys */</text>
<text text-anchor="middle" x="228" y="-584.5" font-family="Times,serif" font-size="16.00">		</text>
<polyline fill="none" stroke="black" points="0.308,-575.7 455.692,-575.7 "/>
<text text-anchor="middle" x="228" y="-557.3" font-family="Times,serif" font-size="16.00">bool	cc_relisshared; /* is relation shared across databases? */</text>
<text text-anchor="middle" x="228" y="-538.1" font-family="Times,serif" font-size="16.00">		</text>
<polyline fill="none" stroke="black" points="0.308,-529.3 455.692,-529.3 "/>
<text text-anchor="middle" x="228" y="-510.9" font-family="Times,serif" font-size="16.00">TupleDesc cc_tupdesc;	/* tuple descriptor (copied from reldesc) */</text>
<text text-anchor="middle" x="228" y="-491.7" font-family="Times,serif" font-size="16.00">		</text>
<polyline fill="none" stroke="black" points="0.308,-482.9 455.692,-482.9 "/>
<text text-anchor="middle" x="228" y="-464.5" font-family="Times,serif" font-size="16.00">int	cc_reloidattr;	/* AttrNumber of relation OID attr, or 0 */</text>
<text text-anchor="middle" x="228" y="-445.3" font-family="Times,serif" font-size="16.00">		</text>
<polyline fill="none" stroke="black" points="0.308,-436.5 455.692,-436.5 "/>
<text text-anchor="middle" x="228" y="-418.1" font-family="Times,serif" font-size="16.00">int	cc_ntup; /* # of tuples currently in this cache */</text>
<text text-anchor="middle" x="228" y="-398.9" font-family="Times,serif" font-size="16.00">		</text>
<polyline fill="none" stroke="black" points="0.308,-390.1 455.692,-390.1 "/>
<text text-anchor="middle" x="228" y="-371.7" font-family="Times,serif" font-size="16.00">int	cc_nbuckets;	/* # of hash buckets in this cache */</text>
<text text-anchor="middle" x="228" y="-352.5" font-family="Times,serif" font-size="16.00">		</text>
<polyline fill="none" stroke="black" points="0.308,-343.7 455.692,-343.7 "/>
<text text-anchor="middle" x="228" y="-325.3" font-family="Times,serif" font-size="16.00">int	cc_nkeys;	/* # of keys (1..4) */</text>
<text text-anchor="middle" x="228" y="-306.1" font-family="Times,serif" font-size="16.00">		</text>
<polyline fill="none" stroke="black" points="0.308,-297.3 455.692,-297.3 "/>
<text text-anchor="middle" x="228" y="-278.9" font-family="Times,serif" font-size="16.00">int	cc_key[4];	/* AttrNumber of each key */</text>
<text text-anchor="middle" x="228" y="-259.7" font-family="Times,serif" font-size="16.00">		</text>
<polyline fill="none" stroke="black" points="0.308,-250.9 455.692,-250.9 "/>
<text text-anchor="middle" x="228" y="-232.5" font-family="Times,serif" font-size="16.00">PGFunction cc_hashfunc[4]; /* hash function to use for each key */</text>
<text text-anchor="middle" x="228" y="-213.3" font-family="Times,serif" font-size="16.00">		</text>
<polyline fill="none" stroke="black" points="0.308,-204.5 455.692,-204.5 "/>
<text text-anchor="middle" x="228" y="-186.1" font-family="Times,serif" font-size="16.00">ScanKeyData cc_skey[4]; /* precomputed key info for heap scans */</text>
<text text-anchor="middle" x="228" y="-166.9" font-family="Times,serif" font-size="16.00">		</text>
<polyline fill="none" stroke="black" points="0.308,-158.1 455.692,-158.1 "/>
<text text-anchor="middle" x="228" y="-139.7" font-family="Times,serif" font-size="16.00">bool	cc_isname[4];	/* flag key columns that are NAMEs */</text>
<text text-anchor="middle" x="228" y="-120.5" font-family="Times,serif" font-size="16.00">		</text>
<polyline fill="none" stroke="black" points="0.308,-111.7 455.692,-111.7 "/>
<text text-anchor="middle" x="228" y="-93.3" font-family="Times,serif" font-size="16.00">Dllist	cc_lists;	/* list of CatCList structs */</text>
<text text-anchor="middle" x="228" y="-74.1" font-family="Times,serif" font-size="16.00">		</text>
<polyline fill="none" stroke="black" points="0.308,-65.3 455.692,-65.3 "/>
<text text-anchor="middle" x="228" y="-46.9" font-family="Times,serif" font-size="16.00">Dllist	cc_bucket[1];	/* hash buckets */</text>
<text text-anchor="middle" x="228" y="-8.7" font-family="Times,serif" font-size="16.00">		</text>
</g>
</g>
</svg>
