<?xml version="1.0" encoding="UTF-8" standalone="no"?>
<!DOCTYPE svg PUBLIC "-//W3C//DTD SVG 1.1//EN"
 "http://www.w3.org/Graphics/SVG/1.1/DTD/svg11.dtd">
<!-- Generated by graphviz version 2.32.0 (20130827.0619)
 -->
<!-- Title: g Pages: 1 -->
<svg width="464pt" height="844pt"
 viewBox="0.00 0.00 464.00 844.00" xmlns="http://www.w3.org/2000/svg" xmlns:xlink="http://www.w3.org/1999/xlink">
<g id="graph0" class="graph" transform="scale(1 1) rotate(0) translate(4 840)">
<title>g</title>
<polygon fill="white" stroke="white" points="-4,5 -4,-840 461,-840 461,5 -4,5"/>
<!-- catcache -->
<g id="node1" class="node"><title>catcache</title>
<polygon fill="yellow" stroke="yellow" points="0.308,-0.4 0.308,-835.6 455.692,-835.6 455.692,-0.4 0.308,-0.4"/>
<text text-anchor="middle" x="228" y="-817.2" font-family="Times,serif" font-size="16.00">struct catcache</text>
<text text-anchor="middle" x="228" y="-798" font-family="Times,serif" font-size="16.00">		</text>
<polyline fill="none" stroke="yellow" points="0.308,-789.2 455.692,-789.2 "/>
<text text-anchor="middle" x="228" y="-770.8" font-family="Times,serif" font-size="16.00">int id;	/* cache identifier &#45;&#45;&#45; see syscache.h */</text>
<text text-anchor="middle" x="228" y="-751.6" font-family="Times,serif" font-size="16.00">		</text>
<polyline fill="none" stroke="yellow" points="0.308,-742.8 455.692,-742.8 "/>
<text text-anchor="middle" x="228" y="-724.4" font-family="Times,serif" font-size="16.00">struct catcache *cc_next; /* link to next catcache */</text>
<text text-anchor="middle" x="228" y="-705.2" font-family="Times,serif" font-size="16.00">		</text>
<polyline fill="none" stroke="yellow" points="0.308,-696.4 455.692,-696.4 "/>
<text text-anchor="middle" x="228" y="-678" font-family="Times,serif" font-size="16.00">const char *cc_relname; /* name of relation the tuples come from */</text>
<text text-anchor="middle" x="228" y="-658.8" font-family="Times,serif" font-size="16.00">		</text>
<polyline fill="none" stroke="yellow" points="0.308,-650 455.692,-650 "/>
<text text-anchor="middle" x="228" y="-631.6" font-family="Times,serif" font-size="16.00">Oid	cc_reloid;	/* OID of relation the tuples come from */</text>
<text text-anchor="middle" x="228" y="-612.4" font-family="Times,serif" font-size="16.00">		</text>
<polyline fill="none" stroke="yellow" points="0.308,-603.6 455.692,-603.6 "/>
<text text-anchor="middle" x="228" y="-585.2" font-family="Times,serif" font-size="16.00">Oid	cc_indexoid;	/* OID of index matching cache keys */</text>
<text text-anchor="middle" x="228" y="-566" font-family="Times,serif" font-size="16.00">		</text>
<polyline fill="none" stroke="yellow" points="0.308,-557.2 455.692,-557.2 "/>
<text text-anchor="middle" x="228" y="-538.8" font-family="Times,serif" font-size="16.00">bool	cc_relisshared; /* is relation shared across databases? */</text>
<text text-anchor="middle" x="228" y="-519.6" font-family="Times,serif" font-size="16.00">		</text>
<polyline fill="none" stroke="yellow" points="0.308,-510.8 455.692,-510.8 "/>
<text text-anchor="middle" x="228" y="-492.4" font-family="Times,serif" font-size="16.00">TupleDesc cc_tupdesc;	/* tuple descriptor (copied from reldesc) */</text>
<text text-anchor="middle" x="228" y="-473.2" font-family="Times,serif" font-size="16.00">		</text>
<polyline fill="none" stroke="yellow" points="0.308,-464.4 455.692,-464.4 "/>
<text text-anchor="middle" x="228" y="-446" font-family="Times,serif" font-size="16.00">int	cc_reloidattr;	/* AttrNumber of relation OID attr, or 0 */</text>
<text text-anchor="middle" x="228" y="-426.8" font-family="Times,serif" font-size="16.00">		</text>
<polyline fill="none" stroke="yellow" points="0.308,-418 455.692,-418 "/>
<text text-anchor="middle" x="228" y="-399.6" font-family="Times,serif" font-size="16.00">int	cc_ntup; /* # of tuples currently in this cache */</text>
<text text-anchor="middle" x="228" y="-380.4" font-family="Times,serif" font-size="16.00">		</text>
<polyline fill="none" stroke="yellow" points="0.308,-371.6 455.692,-371.6 "/>
<text text-anchor="middle" x="228" y="-353.2" font-family="Times,serif" font-size="16.00">int	cc_nbuckets;	/* # of hash buckets in this cache */</text>
<text text-anchor="middle" x="228" y="-334" font-family="Times,serif" font-size="16.00">		</text>
<polyline fill="none" stroke="yellow" points="0.308,-325.2 455.692,-325.2 "/>
<text text-anchor="middle" x="228" y="-306.8" font-family="Times,serif" font-size="16.00">int	cc_nkeys;	/* # of keys (1..4) */</text>
<text text-anchor="middle" x="228" y="-287.6" font-family="Times,serif" font-size="16.00">		</text>
<polyline fill="none" stroke="yellow" points="0.308,-278.8 455.692,-278.8 "/>
<text text-anchor="middle" x="228" y="-260.4" font-family="Times,serif" font-size="16.00">int	cc_key[4];	/* AttrNumber of each key */</text>
<text text-anchor="middle" x="228" y="-241.2" font-family="Times,serif" font-size="16.00">		</text>
<polyline fill="none" stroke="yellow" points="0.308,-232.4 455.692,-232.4 "/>
<text text-anchor="middle" x="228" y="-214" font-family="Times,serif" font-size="16.00">PGFunction cc_hashfunc[4]; /* hash function to use for each key */</text>
<text text-anchor="middle" x="228" y="-194.8" font-family="Times,serif" font-size="16.00">		</text>
<polyline fill="none" stroke="yellow" points="0.308,-186 455.692,-186 "/>
<text text-anchor="middle" x="228" y="-167.6" font-family="Times,serif" font-size="16.00">ScanKeyData cc_skey[4]; /* precomputed key info for heap scans */</text>
<text text-anchor="middle" x="228" y="-148.4" font-family="Times,serif" font-size="16.00">		</text>
<polyline fill="none" stroke="yellow" points="0.308,-139.6 455.692,-139.6 "/>
<text text-anchor="middle" x="228" y="-121.2" font-family="Times,serif" font-size="16.00">bool	cc_isname[4];	/* flag key columns that are NAMEs */</text>
<text text-anchor="middle" x="228" y="-102" font-family="Times,serif" font-size="16.00">		</text>
<polyline fill="none" stroke="yellow" points="0.308,-93.2 455.692,-93.2 "/>
<text text-anchor="middle" x="228" y="-74.8" font-family="Times,serif" font-size="16.00">Dllist	cc_lists;	/* list of CatCList structs */</text>
<text text-anchor="middle" x="228" y="-55.6" font-family="Times,serif" font-size="16.00">		</text>
<polyline fill="none" stroke="yellow" points="0.308,-46.8 455.692,-46.8 "/>
<text text-anchor="middle" x="228" y="-28.4" font-family="Times,serif" font-size="16.00">Dllist	cc_bucket[1];	/* hash buckets */</text>
<text text-anchor="middle" x="228" y="-9.2" font-family="Times,serif" font-size="16.00">		</text>
</g>
</g>
</svg>
