<?xml version="1.0" encoding="UTF-8" standalone="no"?>
<!DOCTYPE svg PUBLIC "-//W3C//DTD SVG 1.1//EN"
 "http://www.w3.org/Graphics/SVG/1.1/DTD/svg11.dtd">
<!-- Generated by graphviz version 2.32.0 (20130827.0619)
 -->
<!-- Title: g Pages: 1 -->
<svg width="330pt" height="638pt"
 viewBox="0.00 0.00 330.00 638.00" xmlns="http://www.w3.org/2000/svg" xmlns:xlink="http://www.w3.org/1999/xlink">
<g id="graph0" class="graph" transform="scale(1 1) rotate(0) translate(4 634)">
<title>g</title>
<polygon fill="white" stroke="white" points="-4,5 -4,-634 327,-634 327,5 -4,5"/>
<!-- HASHCTL -->
<g id="node1" class="node"><title>HASHCTL</title>
<polygon fill="yellow" stroke="black" points="0.3656,0.2 0.3656,-630.2 321.634,-630.2 321.634,0.2 0.3656,0.2"/>
<text text-anchor="middle" x="161" y="-611.8" font-family="Times,serif" font-size="16.00">HASHCTL 创建哈希表时候使用的结构体</text>
<text text-anchor="middle" x="161" y="-592.6" font-family="Times,serif" font-size="16.00">		</text>
<polyline fill="none" stroke="black" points="0.3656,-583.8 321.634,-583.8 "/>
<text text-anchor="middle" x="161" y="-565.4" font-family="Times,serif" font-size="16.00">long num_partitions</text>
<text text-anchor="middle" x="161" y="-546.2" font-family="Times,serif" font-size="16.00">		</text>
<polyline fill="none" stroke="black" points="0.3656,-537.4 321.634,-537.4 "/>
<text text-anchor="middle" x="161" y="-519" font-family="Times,serif" font-size="16.00">long ssize</text>
<text text-anchor="middle" x="161" y="-499.8" font-family="Times,serif" font-size="16.00">		</text>
<polyline fill="none" stroke="black" points="0.3656,-491 321.634,-491 "/>
<text text-anchor="middle" x="161" y="-472.6" font-family="Times,serif" font-size="16.00">long dsize</text>
<text text-anchor="middle" x="161" y="-453.4" font-family="Times,serif" font-size="16.00">		</text>
<polyline fill="none" stroke="black" points="0.3656,-444.6 321.634,-444.6 "/>
<text text-anchor="middle" x="161" y="-426.2" font-family="Times,serif" font-size="16.00">long max_dsize</text>
<text text-anchor="middle" x="161" y="-407" font-family="Times,serif" font-size="16.00">		</text>
<polyline fill="none" stroke="black" points="0.3656,-398.2 321.634,-398.2 "/>
<text text-anchor="middle" x="161" y="-379.8" font-family="Times,serif" font-size="16.00">long ffactor</text>
<text text-anchor="middle" x="161" y="-360.6" font-family="Times,serif" font-size="16.00">		</text>
<polyline fill="none" stroke="black" points="0.3656,-351.8 321.634,-351.8 "/>
<text text-anchor="middle" x="161" y="-333.4" font-family="Times,serif" font-size="16.00">Size keysize</text>
<text text-anchor="middle" x="161" y="-314.2" font-family="Times,serif" font-size="16.00">		</text>
<polyline fill="none" stroke="black" points="0.3656,-305.4 321.634,-305.4 "/>
<text text-anchor="middle" x="161" y="-287" font-family="Times,serif" font-size="16.00">Size entrysize</text>
<text text-anchor="middle" x="161" y="-267.8" font-family="Times,serif" font-size="16.00">		</text>
<polyline fill="none" stroke="black" points="0.3656,-259 321.634,-259 "/>
<text text-anchor="middle" x="161" y="-240.6" font-family="Times,serif" font-size="16.00">HashValueFunc hash</text>
<text text-anchor="middle" x="161" y="-221.4" font-family="Times,serif" font-size="16.00">		</text>
<polyline fill="none" stroke="black" points="0.3656,-212.6 321.634,-212.6 "/>
<text text-anchor="middle" x="161" y="-194.2" font-family="Times,serif" font-size="16.00">HashCompareFunc match</text>
<text text-anchor="middle" x="161" y="-175" font-family="Times,serif" font-size="16.00">		</text>
<polyline fill="none" stroke="black" points="0.3656,-166.2 321.634,-166.2 "/>
<text text-anchor="middle" x="161" y="-147.8" font-family="Times,serif" font-size="16.00">HashCopyFunc keycopy</text>
<text text-anchor="middle" x="161" y="-128.6" font-family="Times,serif" font-size="16.00">		</text>
<polyline fill="none" stroke="black" points="0.3656,-119.8 321.634,-119.8 "/>
<text text-anchor="middle" x="161" y="-101.4" font-family="Times,serif" font-size="16.00">HashAllocFunc alloc</text>
<text text-anchor="middle" x="161" y="-82.2" font-family="Times,serif" font-size="16.00">		</text>
<polyline fill="none" stroke="black" points="0.3656,-73.4 321.634,-73.4 "/>
<text text-anchor="middle" x="161" y="-55" font-family="Times,serif" font-size="16.00">MemoryContext hcxt</text>
<text text-anchor="middle" x="161" y="-35.8" font-family="Times,serif" font-size="16.00">		</text>
<polyline fill="none" stroke="black" points="0.3656,-27 321.634,-27 "/>
<text text-anchor="middle" x="161" y="-8.6" font-family="Times,serif" font-size="16.00">HASHHDR *hctl header 在共享内存的位置</text>
</g>
</g>
</svg>
