<?xml version="1.0" encoding="UTF-8" standalone="no"?>
<!DOCTYPE svg PUBLIC "-//W3C//DTD SVG 1.1//EN"
 "http://www.w3.org/Graphics/SVG/1.1/DTD/svg11.dtd">
<!-- Generated by graphviz version 2.32.0 (20130827.0619)
 -->
<!-- Title: g Pages: 1 -->
<svg width="436pt" height="758pt"
 viewBox="0.00 0.00 436.00 758.00" xmlns="http://www.w3.org/2000/svg" xmlns:xlink="http://www.w3.org/1999/xlink">
<g id="graph0" class="graph" transform="scale(1 1) rotate(0) translate(4 754)">
<title>g</title>
<polygon fill="white" stroke="white" points="-4,5 -4,-754 433,-754 433,5 -4,5"/>
<!-- HASHHDR -->
<g id="node1" class="node"><title>HASHHDR</title>
<polygon fill="lightblue" stroke="black" points="0.7088,0.2 0.7088,-750.2 427.291,-750.2 427.291,0.2 0.7088,0.2"/>
<text text-anchor="middle" x="214" y="-731.8" font-family="Times,serif" font-size="16.00">struct HASHHDR </text>
<text text-anchor="middle" x="214" y="-712.6" font-family="Times,serif" font-size="16.00">		</text>
<polyline fill="none" stroke="black" points="0.7088,-703.8 427.291,-703.8 "/>
<text text-anchor="middle" x="214" y="-685.4" font-family="Times,serif" font-size="16.00">slock_t mutex锁，在操作nentries和freelist时获取</text>
<text text-anchor="middle" x="214" y="-666.2" font-family="Times,serif" font-size="16.00">		</text>
<polyline fill="none" stroke="black" points="0.7088,-657.4 427.291,-657.4 "/>
<text text-anchor="middle" x="214" y="-639" font-family="Times,serif" font-size="16.00">long nentries 哈希表entries数量</text>
<text text-anchor="middle" x="214" y="-619.8" font-family="Times,serif" font-size="16.00">		</text>
<polyline fill="none" stroke="black" points="0.7088,-611 427.291,-611 "/>
<text text-anchor="middle" x="214" y="-592.6" font-family="Times,serif" font-size="16.00">HASHELEMENT *freeList 释放元素的链表</text>
<text text-anchor="middle" x="214" y="-573.4" font-family="Times,serif" font-size="16.00">		</text>
<polyline fill="none" stroke="black" points="0.7088,-564.6 427.291,-564.6 "/>
<text text-anchor="middle" x="214" y="-546.2" font-family="Times,serif" font-size="16.00">long dsize 目录大小</text>
<text text-anchor="middle" x="214" y="-527" font-family="Times,serif" font-size="16.00">		</text>
<polyline fill="none" stroke="black" points="0.7088,-518.2 427.291,-518.2 "/>
<text text-anchor="middle" x="214" y="-499.8" font-family="Times,serif" font-size="16.00">long nsegs 被分配的段数量</text>
<text text-anchor="middle" x="214" y="-480.6" font-family="Times,serif" font-size="16.00">		</text>
<polyline fill="none" stroke="black" points="0.7088,-471.8 427.291,-471.8 "/>
<text text-anchor="middle" x="214" y="-453.4" font-family="Times,serif" font-size="16.00">uint32 max_bucket 被使用的最大的桶号</text>
<text text-anchor="middle" x="214" y="-434.2" font-family="Times,serif" font-size="16.00">		</text>
<polyline fill="none" stroke="black" points="0.7088,-425.4 427.291,-425.4 "/>
<text text-anchor="middle" x="214" y="-407" font-family="Times,serif" font-size="16.00">uint32 high_mask 掩码，modulo into entire table</text>
<polyline fill="none" stroke="black" points="0.7088,-398.2 427.291,-398.2 "/>
<text text-anchor="middle" x="214" y="-379.8" font-family="Times,serif" font-size="16.00">uint32 low_mask 掩码，module into lower half of table</text>
<text text-anchor="middle" x="214" y="-360.6" font-family="Times,serif" font-size="16.00">		</text>
<polyline fill="none" stroke="black" points="0.7088,-351.8 427.291,-351.8 "/>
<text text-anchor="middle" x="214" y="-333.4" font-family="Times,serif" font-size="16.00">Size keysize 键值长度</text>
<text text-anchor="middle" x="214" y="-314.2" font-family="Times,serif" font-size="16.00">		</text>
<polyline fill="none" stroke="black" points="0.7088,-305.4 427.291,-305.4 "/>
<text text-anchor="middle" x="214" y="-287" font-family="Times,serif" font-size="16.00">Size entrysize 所有用户element大小</text>
<text text-anchor="middle" x="214" y="-267.8" font-family="Times,serif" font-size="16.00">		</text>
<polyline fill="none" stroke="black" points="0.7088,-259 427.291,-259 "/>
<text text-anchor="middle" x="214" y="-240.6" font-family="Times,serif" font-size="16.00">long num_partitions （shared buffer mapping hashtable 16）</text>
<text text-anchor="middle" x="214" y="-221.4" font-family="Times,serif" font-size="16.00">		</text>
<polyline fill="none" stroke="black" points="0.7088,-212.6 427.291,-212.6 "/>
<text text-anchor="middle" x="214" y="-194.2" font-family="Times,serif" font-size="16.00">long ffactor填充因子</text>
<text text-anchor="middle" x="214" y="-175" font-family="Times,serif" font-size="16.00">		</text>
<polyline fill="none" stroke="black" points="0.7088,-166.2 427.291,-166.2 "/>
<text text-anchor="middle" x="214" y="-147.8" font-family="Times,serif" font-size="16.00">long max_dsize 目录大小极值</text>
<text text-anchor="middle" x="214" y="-128.6" font-family="Times,serif" font-size="16.00">		</text>
<polyline fill="none" stroke="black" points="0.7088,-119.8 427.291,-119.8 "/>
<text text-anchor="middle" x="214" y="-101.4" font-family="Times,serif" font-size="16.00">long ssize 段大小，保存bucket个数</text>
<text text-anchor="middle" x="214" y="-82.2" font-family="Times,serif" font-size="16.00">		</text>
<polyline fill="none" stroke="black" points="0.7088,-73.4 427.291,-73.4 "/>
<text text-anchor="middle" x="214" y="-55" font-family="Times,serif" font-size="16.00">int sshift</text>
<text text-anchor="middle" x="214" y="-35.8" font-family="Times,serif" font-size="16.00">		</text>
<polyline fill="none" stroke="black" points="0.7088,-27 427.291,-27 "/>
<text text-anchor="middle" x="214" y="-8.6" font-family="Times,serif" font-size="16.00">int nelem_alloc 一次分配的entries数量</text>
</g>
</g>
</svg>
