<?xml version="1.0" encoding="UTF-8" standalone="no"?>
<!DOCTYPE svg PUBLIC "-//W3C//DTD SVG 1.1//EN"
 "http://www.w3.org/Graphics/SVG/1.1/DTD/svg11.dtd">
<!-- Generated by graphviz version 2.32.0 (20130827.0619)
 -->
<!-- Title: g Pages: 1 -->
<svg width="1304pt" height="638pt"
 viewBox="0.00 0.00 1304.00 638.00" xmlns="http://www.w3.org/2000/svg" xmlns:xlink="http://www.w3.org/1999/xlink">
<g id="graph0" class="graph" transform="scale(1 1) rotate(0) translate(4 634)">
<title>g</title>
<polygon fill="white" stroke="white" points="-4,5 -4,-634 1301,-634 1301,5 -4,5"/>
<!-- HTAB -->
<g id="node1" class="node"><title>HTAB</title>
<polygon fill="lightblue" stroke="black" points="0.632,0.2 0.632,-630.2 467.368,-630.2 467.368,0.2 0.632,0.2"/>
<text text-anchor="middle" x="234" y="-611.8" font-family="Times,serif" font-size="16.00">struct HTAB</text>
<text text-anchor="middle" x="234" y="-592.6" font-family="Times,serif" font-size="16.00">		</text>
<polyline fill="none" stroke="black" points="0.632,-583.8 467.368,-583.8 "/>
<text text-anchor="middle" x="234" y="-565.4" font-family="Times,serif" font-size="16.00">HASHHDR *hctl 控制共享信息等，如果是共享的就放在共享内存</text>
<text text-anchor="middle" x="234" y="-546.2" font-family="Times,serif" font-size="16.00">		</text>
<polyline fill="none" stroke="black" points="0.632,-537.4 467.368,-537.4 "/>
<text text-anchor="middle" x="234" y="-519" font-family="Times,serif" font-size="16.00">HASHSEGMENT *dir 段指针</text>
<text text-anchor="middle" x="234" y="-499.8" font-family="Times,serif" font-size="16.00">		</text>
<polyline fill="none" stroke="black" points="0.632,-491 467.368,-491 "/>
<text text-anchor="middle" x="234" y="-472.6" font-family="Times,serif" font-size="16.00">HashValueFunc hash 哈希函数</text>
<text text-anchor="middle" x="234" y="-453.4" font-family="Times,serif" font-size="16.00">		</text>
<polyline fill="none" stroke="black" points="0.632,-444.6 467.368,-444.6 "/>
<text text-anchor="middle" x="234" y="-426.2" font-family="Times,serif" font-size="16.00">HashCompareFunc match 键值比较函数</text>
<text text-anchor="middle" x="234" y="-407" font-family="Times,serif" font-size="16.00">		</text>
<polyline fill="none" stroke="black" points="0.632,-398.2 467.368,-398.2 "/>
<text text-anchor="middle" x="234" y="-379.8" font-family="Times,serif" font-size="16.00">HashCopyFunc keycopy 键值复制函数</text>
<text text-anchor="middle" x="234" y="-360.6" font-family="Times,serif" font-size="16.00">		</text>
<polyline fill="none" stroke="black" points="0.632,-351.8 467.368,-351.8 "/>
<text text-anchor="middle" x="234" y="-333.4" font-family="Times,serif" font-size="16.00">HashAllocFunc alloc 内存分配器</text>
<text text-anchor="middle" x="234" y="-314.2" font-family="Times,serif" font-size="16.00">		</text>
<polyline fill="none" stroke="black" points="0.632,-305.4 467.368,-305.4 "/>
<text text-anchor="middle" x="234" y="-287" font-family="Times,serif" font-size="16.00">MemoryContext hcxt 内存上下文（默认分配器使用状态下）</text>
<text text-anchor="middle" x="234" y="-267.8" font-family="Times,serif" font-size="16.00">		</text>
<polyline fill="none" stroke="black" points="0.632,-259 467.368,-259 "/>
<text text-anchor="middle" x="234" y="-240.6" font-family="Times,serif" font-size="16.00">char *tabname 表名（用于错误消息）</text>
<text text-anchor="middle" x="234" y="-221.4" font-family="Times,serif" font-size="16.00">		</text>
<polyline fill="none" stroke="black" points="0.632,-212.6 467.368,-212.6 "/>
<text text-anchor="middle" x="234" y="-194.2" font-family="Times,serif" font-size="16.00">bool isshared 表在共享内存时为真</text>
<text text-anchor="middle" x="234" y="-175" font-family="Times,serif" font-size="16.00">		</text>
<polyline fill="none" stroke="black" points="0.632,-166.2 467.368,-166.2 "/>
<text text-anchor="middle" x="234" y="-147.8" font-family="Times,serif" font-size="16.00">bool frozen 被冻结的表无法插入</text>
<text text-anchor="middle" x="234" y="-128.6" font-family="Times,serif" font-size="16.00">		</text>
<polyline fill="none" stroke="black" points="0.632,-119.8 467.368,-119.8 "/>
<text text-anchor="middle" x="234" y="-101.4" font-family="Times,serif" font-size="16.00">Size keysize 哈希键值长度</text>
<text text-anchor="middle" x="234" y="-82.2" font-family="Times,serif" font-size="16.00">		</text>
<polyline fill="none" stroke="black" points="0.632,-73.4 467.368,-73.4 "/>
<text text-anchor="middle" x="234" y="-55" font-family="Times,serif" font-size="16.00">long ssize 段保存bucket个数</text>
<text text-anchor="middle" x="234" y="-35.8" font-family="Times,serif" font-size="16.00">		</text>
<polyline fill="none" stroke="black" points="0.632,-27 467.368,-27 "/>
<text text-anchor="middle" x="234" y="-8.6" font-family="Times,serif" font-size="16.00">int sshift （log2(ssize)）</text>
</g>
<!-- HASHSEGMENT -->
<g id="node2" class="node"><title>HASHSEGMENT</title>
<polygon fill="white" stroke="black" points="504.457,-418.6 504.457,-527.4 639.543,-527.4 639.543,-418.6 504.457,-418.6"/>
<text text-anchor="middle" x="572" y="-509" font-family="Times,serif" font-size="16.00">HASHSEGMENT</text>
<polyline fill="none" stroke="black" points="504.457,-500.2 639.543,-500.2 "/>
<text text-anchor="middle" x="572" y="-481.8" font-family="Times,serif" font-size="16.00">HASHSEGMENT</text>
<polyline fill="none" stroke="black" points="504.457,-473 639.543,-473 "/>
<text text-anchor="middle" x="572" y="-454.6" font-family="Times,serif" font-size="16.00">...</text>
<polyline fill="none" stroke="black" points="504.457,-445.8 639.543,-445.8 "/>
<text text-anchor="middle" x="572" y="-427.4" font-family="Times,serif" font-size="16.00">HASHSEGMENT</text>
</g>
<!-- HTAB&#45;&gt;HASHSEGMENT -->
<g id="edge1" class="edge"><title>HTAB:f1&#45;&gt;HASHSEGMENT:f0</title>
<path fill="none" stroke="black" d="M468,-514C480,-514 485.25,-514 493.875,-514"/>
<polygon fill="black" stroke="black" points="494,-517.5 504,-514 494,-510.5 494,-517.5"/>
</g>
<!-- HASHBUCKET -->
<g id="node7" class="node"><title>HASHBUCKET</title>
<polygon fill="lightyellow" stroke="black" points="676.232,-479 676.232,-599 799.768,-599 799.768,-479 676.232,-479"/>
<text text-anchor="middle" x="738" y="-580.6" font-family="Times,serif" font-size="16.00">HASHBUCKET</text>
<text text-anchor="middle" x="738" y="-561.4" font-family="Times,serif" font-size="16.00">			</text>
<polyline fill="none" stroke="black" points="676.232,-552.6 799.768,-552.6 "/>
<text text-anchor="middle" x="738" y="-534.2" font-family="Times,serif" font-size="16.00">......</text>
<text text-anchor="middle" x="738" y="-515" font-family="Times,serif" font-size="16.00">			</text>
<polyline fill="none" stroke="black" points="676.232,-506.2 799.768,-506.2 "/>
<text text-anchor="middle" x="738" y="-487.8" font-family="Times,serif" font-size="16.00">HASHBUCKET</text>
</g>
<!-- HASHSEGMENT&#45;&gt;HASHBUCKET -->
<g id="edge2" class="edge"><title>HASHSEGMENT:f0&#45;&gt;HASHBUCKET:f0</title>
<path fill="none" stroke="black" d="M640,-514C667.632,-514 650.45,-560.625 666.178,-573.01"/>
<polygon fill="black" stroke="black" points="665.414,-576.435 676,-576 667.453,-569.739 665.414,-576.435"/>
</g>
<!-- 1HASHBUCKET -->
<g id="node8" class="node"><title>1HASHBUCKET</title>
<polygon fill="lightyellow" stroke="black" points="676.232,-329 676.232,-449 799.768,-449 799.768,-329 676.232,-329"/>
<text text-anchor="middle" x="738" y="-430.6" font-family="Times,serif" font-size="16.00">HASHBUCKET</text>
<text text-anchor="middle" x="738" y="-411.4" font-family="Times,serif" font-size="16.00">			</text>
<polyline fill="none" stroke="black" points="676.232,-402.6 799.768,-402.6 "/>
<text text-anchor="middle" x="738" y="-384.2" font-family="Times,serif" font-size="16.00">......</text>
<text text-anchor="middle" x="738" y="-365" font-family="Times,serif" font-size="16.00">			</text>
<polyline fill="none" stroke="black" points="676.232,-356.2 799.768,-356.2 "/>
<text text-anchor="middle" x="738" y="-337.8" font-family="Times,serif" font-size="16.00">HASHBUCKET</text>
</g>
<!-- HASHSEGMENT&#45;&gt;1HASHBUCKET -->
<g id="edge3" class="edge"><title>HASHSEGMENT:f1&#45;&gt;1HASHBUCKET:f0</title>
<path fill="none" stroke="black" d="M640,-487C667.299,-487 650.65,-441.127 666.276,-428.942"/>
<polygon fill="black" stroke="black" points="667.442,-432.246 676,-426 665.415,-425.546 667.442,-432.246"/>
</g>
<!-- HASHELEMENT -->
<g id="node3" class="node"><title>HASHELEMENT</title>
<polygon fill="lightgreen" stroke="black" points="836.686,-444.8 836.686,-611.2 1047.31,-611.2 1047.31,-444.8 836.686,-444.8"/>
<text text-anchor="middle" x="942" y="-592.8" font-family="Times,serif" font-size="16.00">struct HASHELEMENT</text>
<text text-anchor="middle" x="942" y="-573.6" font-family="Times,serif" font-size="16.00">		</text>
<polyline fill="none" stroke="black" points="836.686,-564.8 1047.31,-564.8 "/>
<text text-anchor="middle" x="942" y="-546.4" font-family="Times,serif" font-size="16.00">struct HASHELEMENT *link</text>
<text text-anchor="middle" x="942" y="-527.2" font-family="Times,serif" font-size="16.00">		</text>
<polyline fill="none" stroke="black" points="836.686,-518.4 1047.31,-518.4 "/>
<text text-anchor="middle" x="942" y="-500" font-family="Times,serif" font-size="16.00">uint32 hashvalue</text>
<text text-anchor="middle" x="942" y="-480.8" font-family="Times,serif" font-size="16.00">		</text>
<polyline fill="none" stroke="black" points="836.686,-472 1047.31,-472 "/>
<text text-anchor="middle" x="942" y="-453.6" font-family="Times,serif" font-size="16.00">caller&#39;s data</text>
</g>
<!-- 1HASHELEMENT -->
<g id="node4" class="node"><title>1HASHELEMENT</title>
<polygon fill="lightgreen" stroke="black" points="1084.69,-398.8 1084.69,-565.2 1295.31,-565.2 1295.31,-398.8 1084.69,-398.8"/>
<text text-anchor="middle" x="1190" y="-546.8" font-family="Times,serif" font-size="16.00">struct HASHELEMENT</text>
<text text-anchor="middle" x="1190" y="-527.6" font-family="Times,serif" font-size="16.00">		</text>
<polyline fill="none" stroke="black" points="1084.69,-518.8 1295.31,-518.8 "/>
<text text-anchor="middle" x="1190" y="-500.4" font-family="Times,serif" font-size="16.00">struct HASHELEMENT *link</text>
<text text-anchor="middle" x="1190" y="-481.2" font-family="Times,serif" font-size="16.00">		</text>
<polyline fill="none" stroke="black" points="1084.69,-472.4 1295.31,-472.4 "/>
<text text-anchor="middle" x="1190" y="-454" font-family="Times,serif" font-size="16.00">uint32 hashvalue</text>
<text text-anchor="middle" x="1190" y="-434.8" font-family="Times,serif" font-size="16.00">		</text>
<polyline fill="none" stroke="black" points="1084.69,-426 1295.31,-426 "/>
<text text-anchor="middle" x="1190" y="-407.6" font-family="Times,serif" font-size="16.00">caller&#39;s data</text>
</g>
<!-- HASHELEMENT&#45;&gt;1HASHELEMENT -->
<g id="edge5" class="edge"><title>HASHELEMENT:f1&#45;&gt;1HASHELEMENT:f0</title>
<path fill="none" stroke="black" d="M1048,-542C1060,-542 1065.25,-542 1073.88,-542"/>
<polygon fill="black" stroke="black" points="1074,-545.5 1084,-542 1074,-538.5 1074,-545.5"/>
</g>
<!-- 2HASHELEMENT -->
<g id="node5" class="node"><title>2HASHELEMENT</title>
<polygon fill="lightgreen" stroke="black" points="836.686,-259.8 836.686,-426.2 1047.31,-426.2 1047.31,-259.8 836.686,-259.8"/>
<text text-anchor="middle" x="942" y="-407.8" font-family="Times,serif" font-size="16.00">struct HASHELEMENT</text>
<text text-anchor="middle" x="942" y="-388.6" font-family="Times,serif" font-size="16.00">		</text>
<polyline fill="none" stroke="black" points="836.686,-379.8 1047.31,-379.8 "/>
<text text-anchor="middle" x="942" y="-361.4" font-family="Times,serif" font-size="16.00">struct HASHELEMENT *link</text>
<text text-anchor="middle" x="942" y="-342.2" font-family="Times,serif" font-size="16.00">		</text>
<polyline fill="none" stroke="black" points="836.686,-333.4 1047.31,-333.4 "/>
<text text-anchor="middle" x="942" y="-315" font-family="Times,serif" font-size="16.00">uint32 hashvalue</text>
<text text-anchor="middle" x="942" y="-295.8" font-family="Times,serif" font-size="16.00">		</text>
<polyline fill="none" stroke="black" points="836.686,-287 1047.31,-287 "/>
<text text-anchor="middle" x="942" y="-268.6" font-family="Times,serif" font-size="16.00">caller&#39;s data</text>
</g>
<!-- 3HASHELEMENT -->
<g id="node6" class="node"><title>3HASHELEMENT</title>
<polygon fill="lightgreen" stroke="black" points="1084.69,-213.8 1084.69,-380.2 1295.31,-380.2 1295.31,-213.8 1084.69,-213.8"/>
<text text-anchor="middle" x="1190" y="-361.8" font-family="Times,serif" font-size="16.00">struct HASHELEMENT</text>
<text text-anchor="middle" x="1190" y="-342.6" font-family="Times,serif" font-size="16.00">		</text>
<polyline fill="none" stroke="black" points="1084.69,-333.8 1295.31,-333.8 "/>
<text text-anchor="middle" x="1190" y="-315.4" font-family="Times,serif" font-size="16.00">struct HASHELEMENT *link</text>
<text text-anchor="middle" x="1190" y="-296.2" font-family="Times,serif" font-size="16.00">		</text>
<polyline fill="none" stroke="black" points="1084.69,-287.4 1295.31,-287.4 "/>
<text text-anchor="middle" x="1190" y="-269" font-family="Times,serif" font-size="16.00">uint32 hashvalue</text>
<text text-anchor="middle" x="1190" y="-249.8" font-family="Times,serif" font-size="16.00">		</text>
<polyline fill="none" stroke="black" points="1084.69,-241 1295.31,-241 "/>
<text text-anchor="middle" x="1190" y="-222.6" font-family="Times,serif" font-size="16.00">caller&#39;s data</text>
</g>
<!-- 2HASHELEMENT&#45;&gt;3HASHELEMENT -->
<g id="edge7" class="edge"><title>2HASHELEMENT:f1&#45;&gt;3HASHELEMENT:f0</title>
<path fill="none" stroke="black" d="M1048,-357C1060,-357 1065.25,-357 1073.88,-357"/>
<polygon fill="black" stroke="black" points="1074,-360.5 1084,-357 1074,-353.5 1074,-360.5"/>
</g>
<!-- HASHBUCKET&#45;&gt;HASHELEMENT -->
<g id="edge4" class="edge"><title>HASHBUCKET:f0&#45;&gt;HASHELEMENT:f0</title>
<path fill="none" stroke="black" d="M800,-576C812.781,-576 817.179,-582.891 825.9,-586.229"/>
<polygon fill="black" stroke="black" points="825.546,-589.721 836,-588 826.755,-582.826 825.546,-589.721"/>
</g>
<!-- 1HASHBUCKET&#45;&gt;2HASHELEMENT -->
<g id="edge6" class="edge"><title>1HASHBUCKET:f0&#45;&gt;2HASHELEMENT:f0</title>
<path fill="none" stroke="black" d="M800,-426C814.833,-426 816.874,-411.962 826.11,-405.82"/>
<polygon fill="black" stroke="black" points="827.343,-409.108 836,-403 825.424,-402.377 827.343,-409.108"/>
</g>
</g>
</svg>
