<?xml version="1.0" encoding="UTF-8" standalone="no"?>
<!DOCTYPE svg PUBLIC "-//W3C//DTD SVG 1.1//EN"
 "http://www.w3.org/Graphics/SVG/1.1/DTD/svg11.dtd">
<!-- Generated by graphviz version 2.32.0 (20130827.0619)
 -->
<!-- Title: g Pages: 1 -->
<svg width="414pt" height="319pt"
 viewBox="0.00 0.00 414.00 319.00" xmlns="http://www.w3.org/2000/svg" xmlns:xlink="http://www.w3.org/1999/xlink">
<g id="graph0" class="graph" transform="scale(1 1) rotate(0) translate(4 315)">
<title>g</title>
<defs>
<linearGradient id="l_0" gradientUnits="userSpaceOnUse" x1="-4" y1="-155" x2="411" y2="-155" >
<stop offset="0" style="stop-color:white;stop-opacity:1.;"/>
<stop offset="1" style="stop-color:lightyellow;stop-opacity:1.;"/>
</linearGradient>
</defs>
<polygon fill="url(#l_0)" stroke="none" points="-4,5 -4,-315 411,-315 411,5 -4,5"/>
<!-- head -->
<g id="node1" class="node"><title>head</title>
<polygon fill="purple" stroke="black" points="0.2368,-165 0.2368,-201 127.763,-201 127.763,-165 0.2368,-165"/>
<text text-anchor="middle" x="64" y="-178.6" font-family="Times,serif" font-size="16.00">存储管理中的哈希</text>
</g>
<!-- hard -->
<g id="node2" class="node"><title>hard</title>
<polygon fill="lightgreen" stroke="black" points="164.891,-220 164.891,-256 235.109,-256 235.109,-220 164.891,-220"/>
<text text-anchor="middle" x="200" y="-233.6" font-family="Times,serif" font-size="16.00">外存管理</text>
</g>
<!-- head&#45;&gt;hard -->
<g id="edge1" class="edge"><title>head:f0&#45;&gt;hard:f0</title>
<path fill="none" stroke="black" d="M128.167,-201.163C141.341,-206.5 146.231,-210.286 155.458,-215.653"/>
<polygon fill="black" stroke="black" points="154.054,-218.874 164.506,-220.603 157.413,-212.733 154.054,-218.874"/>
</g>
<!-- memory -->
<g id="node5" class="node"><title>memory</title>
<polygon fill="lightblue" stroke="black" points="164.226,-110 164.226,-146 235.774,-146 235.774,-110 164.226,-110"/>
<text text-anchor="middle" x="200" y="-123.6" font-family="Times,serif" font-size="16.00">内存管理</text>
</g>
<!-- head&#45;&gt;memory -->
<g id="edge2" class="edge"><title>head:f0&#45;&gt;memory:f0</title>
<path fill="none" stroke="black" d="M128.162,-165.64C141.162,-160.402 145.935,-156.578 154.976,-151.174"/>
<polygon fill="black" stroke="black" points="156.839,-154.143 163.849,-146.198 153.415,-148.037 156.839,-154.143"/>
</g>
<!-- smgr -->
<g id="node3" class="node"><title>smgr</title>
<polygon fill="lightgreen" stroke="black" points="287.231,-275 287.231,-311 390.769,-311 390.769,-275 287.231,-275"/>
<text text-anchor="middle" x="339" y="-288.6" font-family="Times,serif" font-size="16.00">Smgr relation</text>
</g>
<!-- hard&#45;&gt;smgr -->
<g id="edge3" class="edge"><title>hard:f0&#45;&gt;smgr:f0</title>
<path fill="none" stroke="black" d="M235.359,-254.165C248.176,-259.846 263.052,-266.242 277.456,-271.982"/>
<polygon fill="black" stroke="black" points="276.238,-275.264 286.826,-275.645 278.787,-268.744 276.238,-275.264"/>
</g>
<!-- pending -->
<g id="node4" class="node"><title>pending</title>
<polygon fill="lightgreen" stroke="black" points="272.566,-220 272.566,-256 405.434,-256 405.434,-220 272.566,-220"/>
<text text-anchor="middle" x="339" y="-233.6" font-family="Times,serif" font-size="16.00">Pending operation</text>
</g>
<!-- hard&#45;&gt;pending -->
<g id="edge4" class="edge"><title>hard:f0&#45;&gt;pending:f0</title>
<path fill="none" stroke="black" d="M235.435,-238C243.764,-238 252.96,-238 262.331,-238"/>
<polygon fill="black" stroke="black" points="262.537,-241.5 272.537,-238 262.537,-234.5 262.537,-241.5"/>
</g>
<!-- local -->
<g id="node6" class="node"><title>local</title>
<polygon fill="lightblue" stroke="black" points="293.91,-165 293.91,-201 384.09,-201 384.09,-165 293.91,-165"/>
<text text-anchor="middle" x="339" y="-178.6" font-family="Times,serif" font-size="16.00">local buffer</text>
</g>
<!-- memory&#45;&gt;local -->
<g id="edge5" class="edge"><title>memory:f0&#45;&gt;local:f0</title>
<path fill="none" stroke="black" d="M236.061,-142.694C250.529,-148.551 267.623,-155.425 283.957,-161.882"/>
<polygon fill="black" stroke="black" points="282.874,-165.217 293.461,-165.624 285.439,-158.704 282.874,-165.217"/>
</g>
<!-- bp -->
<g id="node7" class="node"><title>bp</title>
<polygon fill="lightblue" stroke="black" points="295.236,-110 295.236,-146 382.764,-146 382.764,-110 295.236,-110"/>
<text text-anchor="middle" x="339" y="-123.6" font-family="Times,serif" font-size="16.00">buffer pool</text>
</g>
<!-- memory&#45;&gt;bp -->
<g id="edge6" class="edge"><title>memory:f0&#45;&gt;bp:f0</title>
<path fill="none" stroke="black" d="M235.796,-128C250.784,-128 268.531,-128 285.045,-128"/>
<polygon fill="black" stroke="black" points="285.131,-131.5 295.131,-128 285.131,-124.5 285.131,-131.5"/>
</g>
<!-- sys -->
<g id="node8" class="node"><title>sys</title>
<polygon fill="lightblue" stroke="black" points="302.573,-55 302.573,-91 375.427,-91 375.427,-55 302.573,-55"/>
<text text-anchor="middle" x="339" y="-68.6" font-family="Times,serif" font-size="16.00">syscache</text>
</g>
<!-- memory&#45;&gt;sys -->
<g id="edge7" class="edge"><title>memory:f0&#45;&gt;sys:f0</title>
<path fill="none" stroke="black" d="M235.796,-113.836C253.195,-106.952 274.312,-98.5961 292.9,-91.2409"/>
<polygon fill="black" stroke="black" points="294.346,-94.4328 302.357,-87.4989 291.771,-87.9238 294.346,-94.4328"/>
</g>
<!-- relcache -->
<g id="node9" class="node"><title>relcache</title>
<polygon fill="lightblue" stroke="black" points="304.358,-0 304.358,-36 373.642,-36 373.642,-0 304.358,-0"/>
<text text-anchor="middle" x="339" y="-13.6" font-family="Times,serif" font-size="16.00">relcache</text>
</g>
<!-- memory&#45;&gt;relcache -->
<g id="edge8" class="edge"><title>memory:f0&#45;&gt;relcache:f0</title>
<path fill="none" stroke="black" d="M236.054,-110.535C259.715,-88.0404 247.475,-67.8792 272,-46 278.63,-40.0853 286.687,-35.3051 294.884,-31.483"/>
<polygon fill="black" stroke="black" points="296.287,-34.69 304.128,-27.5655 293.555,-28.2448 296.287,-34.69"/>
</g>
</g>
</svg>
