<?xml version="1.0" encoding="UTF-8" standalone="no"?>
<!DOCTYPE svg PUBLIC "-//W3C//DTD SVG 1.1//EN"
 "http://www.w3.org/Graphics/SVG/1.1/DTD/svg11.dtd">
<!-- Generated by graphviz version 2.32.0 (20130827.0619)
 -->
<!-- Title: g Pages: 1 -->
<svg width="790pt" height="266pt"
 viewBox="0.00 0.00 790.00 266.00" xmlns="http://www.w3.org/2000/svg" xmlns:xlink="http://www.w3.org/1999/xlink">
<g id="graph0" class="graph" transform="scale(1 1) rotate(0) translate(4 262)">
<title>g</title>
<defs>
<linearGradient id="l_0" gradientUnits="userSpaceOnUse" x1="-4" y1="-128.5" x2="787" y2="-128.5" >
<stop offset="0" style="stop-color:white;stop-opacity:1.;"/>
<stop offset="1" style="stop-color:lightyellow;stop-opacity:1.;"/>
</linearGradient>
</defs>
<polygon fill="url(#l_0)" stroke="none" points="-4,5 -4,-262 787,-262 787,5 -4,5"/>
<!-- hash -->
<g id="node1" class="node"><title>hash</title>
<polygon fill="lightblue" stroke="black" points="0.3512,-217 0.3512,-253 109.649,-253 109.649,-217 0.3512,-217"/>
<text text-anchor="middle" x="55" y="-230.6" font-family="Times,serif" font-size="16.00">LocalBufHash</text>
</g>
<!-- segment -->
<g id="node2" class="node"><title>segment</title>
<polygon fill="white" stroke="black" points="146.457,-217 146.457,-253 281.543,-253 281.543,-217 146.457,-217"/>
<text text-anchor="middle" x="214" y="-230.6" font-family="Times,serif" font-size="16.00">HASHSEGMENT</text>
</g>
<!-- hash&#45;&gt;segment -->
<g id="edge1" class="edge"><title>hash:f0&#45;&gt;segment:f0</title>
<path fill="none" stroke="black" d="M109.719,-235C118.269,-235 127.244,-235 136.19,-235"/>
<polygon fill="black" stroke="black" points="136.254,-238.5 146.254,-235 136.254,-231.5 136.254,-238.5"/>
</g>
<!-- bucket -->
<g id="node3" class="node"><title>bucket</title>
<polygon fill="white" stroke="black" points="318.232,-217 318.232,-253 441.768,-253 441.768,-217 318.232,-217"/>
<text text-anchor="middle" x="380" y="-230.6" font-family="Times,serif" font-size="16.00">HASHBUCKET</text>
</g>
<!-- segment&#45;&gt;bucket -->
<g id="edge2" class="edge"><title>segment:f0&#45;&gt;bucket:f0</title>
<path fill="none" stroke="black" d="M281.998,-235C290.557,-235 299.336,-235 307.955,-235"/>
<polygon fill="black" stroke="black" points="307.977,-238.5 317.977,-235 307.977,-231.5 307.977,-238.5"/>
</g>
<!-- element -->
<g id="node4" class="node"><title>element</title>
<polygon fill="lightyellow" stroke="black" points="477.905,-45.6 477.905,-258.4 612.095,-258.4 612.095,-45.6 477.905,-45.6"/>
<text text-anchor="middle" x="545" y="-240" font-family="Times,serif" font-size="16.00">HASHELEMENT</text>
<text text-anchor="middle" x="545" y="-220.8" font-family="Times,serif" font-size="16.00">			</text>
<polyline fill="none" stroke="black" points="477.905,-212 612.095,-212 "/>
<text text-anchor="middle" x="545" y="-193.6" font-family="Times,serif" font-size="16.00">*link</text>
<text text-anchor="middle" x="545" y="-174.4" font-family="Times,serif" font-size="16.00">			</text>
<polyline fill="none" stroke="black" points="477.905,-165.6 612.095,-165.6 "/>
<text text-anchor="middle" x="545" y="-147.2" font-family="Times,serif" font-size="16.00">hashvalue</text>
<text text-anchor="middle" x="545" y="-128" font-family="Times,serif" font-size="16.00">			</text>
<polyline fill="none" stroke="black" points="477.905,-119.2 612.095,-119.2 "/>
<text text-anchor="middle" x="545" y="-100.8" font-family="Times,serif" font-size="16.00">BufferTag key</text>
<text text-anchor="middle" x="545" y="-81.6" font-family="Times,serif" font-size="16.00">			</text>
<polyline fill="none" stroke="black" points="477.905,-72.8 612.095,-72.8 "/>
<text text-anchor="middle" x="545" y="-54.4" font-family="Times,serif" font-size="16.00">int id</text>
</g>
<!-- bucket&#45;&gt;element -->
<g id="edge3" class="edge"><title>bucket:f0&#45;&gt;element:f0</title>
<path fill="none" stroke="black" d="M441.949,-235C450.454,-235 459.196,-235 467.728,-235"/>
<polygon fill="black" stroke="black" points="468,-238.5 478,-235 468,-231.5 468,-238.5"/>
</g>
<!-- 1element -->
<g id="node5" class="node"><title>1element</title>
<polygon fill="lightyellow" stroke="black" points="647.905,0.4 647.905,-212.4 782.095,-212.4 782.095,0.4 647.905,0.4"/>
<text text-anchor="middle" x="715" y="-194" font-family="Times,serif" font-size="16.00">HASHELEMENT</text>
<text text-anchor="middle" x="715" y="-174.8" font-family="Times,serif" font-size="16.00">			</text>
<polyline fill="none" stroke="black" points="647.905,-166 782.095,-166 "/>
<text text-anchor="middle" x="715" y="-147.6" font-family="Times,serif" font-size="16.00">*link</text>
<text text-anchor="middle" x="715" y="-128.4" font-family="Times,serif" font-size="16.00">			</text>
<polyline fill="none" stroke="black" points="647.905,-119.6 782.095,-119.6 "/>
<text text-anchor="middle" x="715" y="-101.2" font-family="Times,serif" font-size="16.00">hashvalue</text>
<text text-anchor="middle" x="715" y="-82" font-family="Times,serif" font-size="16.00">			</text>
<polyline fill="none" stroke="black" points="647.905,-73.2 782.095,-73.2 "/>
<text text-anchor="middle" x="715" y="-54.8" font-family="Times,serif" font-size="16.00">BufferTag key</text>
<text text-anchor="middle" x="715" y="-35.6" font-family="Times,serif" font-size="16.00">			</text>
<polyline fill="none" stroke="black" points="647.905,-26.8 782.095,-26.8 "/>
<text text-anchor="middle" x="715" y="-8.4" font-family="Times,serif" font-size="16.00">int id</text>
</g>
<!-- element&#45;&gt;1element -->
<g id="edge4" class="edge"><title>element:f1&#45;&gt;1element:f0</title>
<path fill="none" stroke="black" d="M612,-189C624,-189 629.25,-189 637.875,-189"/>
<polygon fill="black" stroke="black" points="638,-192.5 648,-189 638,-185.5 638,-192.5"/>
</g>
</g>
</svg>
