<?xml version="1.0" encoding="UTF-8" standalone="no"?>
<!DOCTYPE svg PUBLIC "-//W3C//DTD SVG 1.1//EN"
 "http://www.w3.org/Graphics/SVG/1.1/DTD/svg11.dtd">
<!-- Generated by graphviz version 2.32.0 (20130827.0619)
 -->
<!-- Title: g Pages: 1 -->
<svg width="878pt" height="174pt"
 viewBox="0.00 0.00 878.00 174.00" xmlns="http://www.w3.org/2000/svg" xmlns:xlink="http://www.w3.org/1999/xlink">
<g id="graph0" class="graph" transform="scale(1 1) rotate(0) translate(4 170)">
<title>g</title>
<defs>
<linearGradient id="l_0" gradientUnits="userSpaceOnUse" x1="-4" y1="-82.5" x2="875" y2="-82.5" >
<stop offset="0" style="stop-color:white;stop-opacity:1.;"/>
<stop offset="1" style="stop-color:lightyellow;stop-opacity:1.;"/>
</linearGradient>
</defs>
<polygon fill="url(#l_0)" stroke="none" points="-4,5 -4,-170 875,-170 875,5 -4,5"/>
<!-- hash -->
<g id="node1" class="node"><title>hash</title>
<polygon fill="lightblue" stroke="black" points="0.1264,-125 0.1264,-161 129.874,-161 129.874,-125 0.1264,-125"/>
<text text-anchor="middle" x="65" y="-138.6" font-family="Times,serif" font-size="16.00">pendingOpsTable</text>
</g>
<!-- segment -->
<g id="node2" class="node"><title>segment</title>
<polygon fill="white" stroke="black" points="166.457,-125 166.457,-161 301.543,-161 301.543,-125 166.457,-125"/>
<text text-anchor="middle" x="234" y="-138.6" font-family="Times,serif" font-size="16.00">HASHSEGMENT</text>
</g>
<!-- hash&#45;&gt;segment -->
<g id="edge1" class="edge"><title>hash:f0&#45;&gt;segment:f0</title>
<path fill="none" stroke="black" d="M130.34,-143C138.818,-143 147.569,-143 156.224,-143"/>
<polygon fill="black" stroke="black" points="156.32,-146.5 166.32,-143 156.32,-139.5 156.32,-146.5"/>
</g>
<!-- bucket -->
<g id="node3" class="node"><title>bucket</title>
<polygon fill="white" stroke="black" points="338.232,-125 338.232,-161 461.768,-161 461.768,-125 338.232,-125"/>
<text text-anchor="middle" x="400" y="-138.6" font-family="Times,serif" font-size="16.00">HASHBUCKET</text>
</g>
<!-- segment&#45;&gt;bucket -->
<g id="edge2" class="edge"><title>segment:f0&#45;&gt;bucket:f0</title>
<path fill="none" stroke="black" d="M301.998,-143C310.557,-143 319.336,-143 327.955,-143"/>
<polygon fill="black" stroke="black" points="327.977,-146.5 337.977,-143 327.977,-139.5 327.977,-146.5"/>
</g>
<!-- element -->
<g id="node4" class="node"><title>element</title>
<polygon fill="lightyellow" stroke="black" points="498.018,0.2 498.018,-166.2 665.982,-166.2 665.982,0.2 498.018,0.2"/>
<text text-anchor="middle" x="582" y="-147.8" font-family="Times,serif" font-size="16.00">HASHELEMENT</text>
<text text-anchor="middle" x="582" y="-128.6" font-family="Times,serif" font-size="16.00">			</text>
<polyline fill="none" stroke="black" points="498.018,-119.8 665.982,-119.8 "/>
<text text-anchor="middle" x="582" y="-101.4" font-family="Times,serif" font-size="16.00">*link</text>
<text text-anchor="middle" x="582" y="-82.2" font-family="Times,serif" font-size="16.00">			</text>
<polyline fill="none" stroke="black" points="498.018,-73.4 665.982,-73.4 "/>
<text text-anchor="middle" x="582" y="-55" font-family="Times,serif" font-size="16.00">hashvalue</text>
<text text-anchor="middle" x="582" y="-35.8" font-family="Times,serif" font-size="16.00">			</text>
<polyline fill="none" stroke="black" points="498.018,-27 665.982,-27 "/>
<text text-anchor="middle" x="582" y="-8.6" font-family="Times,serif" font-size="16.00">PendingOperationEntry</text>
</g>
<!-- bucket&#45;&gt;element -->
<g id="edge3" class="edge"><title>bucket:f0&#45;&gt;element:f0</title>
<path fill="none" stroke="black" d="M461.949,-143C470.454,-143 479.196,-143 487.728,-143"/>
<polygon fill="black" stroke="black" points="488,-146.5 498,-143 488,-139.5 488,-146.5"/>
</g>
<!-- 1element -->
<g id="node5" class="node"><title>1element</title>
<polygon fill="lightyellow" stroke="black" points="702.018,0.2 702.018,-166.2 869.982,-166.2 869.982,0.2 702.018,0.2"/>
<text text-anchor="middle" x="786" y="-147.8" font-family="Times,serif" font-size="16.00">HASHELEMENT</text>
<text text-anchor="middle" x="786" y="-128.6" font-family="Times,serif" font-size="16.00">			</text>
<polyline fill="none" stroke="black" points="702.018,-119.8 869.982,-119.8 "/>
<text text-anchor="middle" x="786" y="-101.4" font-family="Times,serif" font-size="16.00">*link</text>
<text text-anchor="middle" x="786" y="-82.2" font-family="Times,serif" font-size="16.00">			</text>
<polyline fill="none" stroke="black" points="702.018,-73.4 869.982,-73.4 "/>
<text text-anchor="middle" x="786" y="-55" font-family="Times,serif" font-size="16.00">hashvalue</text>
<text text-anchor="middle" x="786" y="-35.8" font-family="Times,serif" font-size="16.00">			</text>
<polyline fill="none" stroke="black" points="702.018,-27 869.982,-27 "/>
<text text-anchor="middle" x="786" y="-8.6" font-family="Times,serif" font-size="16.00">PendingOperationEntry</text>
</g>
<!-- element&#45;&gt;1element -->
<g id="edge4" class="edge"><title>element:f1&#45;&gt;1element:f1</title>
<path fill="none" stroke="black" d="M666,-97C678,-97 683.25,-97 691.875,-97"/>
<polygon fill="black" stroke="black" points="692,-100.5 702,-97 692,-93.5001 692,-100.5"/>
</g>
</g>
</svg>
