<?xml version="1.0" encoding="UTF-8" standalone="no"?>
<!DOCTYPE svg PUBLIC "-//W3C//DTD SVG 1.1//EN"
 "http://www.w3.org/Graphics/SVG/1.1/DTD/svg11.dtd">
<!-- Generated by graphviz version 2.32.0 (20130827.0619)
 -->
<!-- Title: g Pages: 1 -->
<svg width="804pt" height="220pt"
 viewBox="0.00 0.00 804.00 220.00" xmlns="http://www.w3.org/2000/svg" xmlns:xlink="http://www.w3.org/1999/xlink">
<g id="graph0" class="graph" transform="scale(1 1) rotate(0) translate(4 216)">
<title>g</title>
<defs>
<linearGradient id="l_0" gradientUnits="userSpaceOnUse" x1="-4" y1="-105.5" x2="801" y2="-105.5" >
<stop offset="0" style="stop-color:white;stop-opacity:1.;"/>
<stop offset="1" style="stop-color:lightyellow;stop-opacity:1.;"/>
</linearGradient>
</defs>
<polygon fill="url(#l_0)" stroke="none" points="-4,5 -4,-216 801,-216 801,5 -4,5"/>
<!-- hash -->
<g id="node1" class="node"><title>hash</title>
<polygon fill="lightblue" stroke="black" points="0.2408,-171 0.2408,-207 123.759,-207 123.759,-171 0.2408,-171"/>
<text text-anchor="middle" x="62" y="-184.6" font-family="Times,serif" font-size="16.00">RelationIdCache</text>
</g>
<!-- segment -->
<g id="node2" class="node"><title>segment</title>
<polygon fill="white" stroke="black" points="160.457,-171 160.457,-207 295.543,-207 295.543,-171 160.457,-171"/>
<text text-anchor="middle" x="228" y="-184.6" font-family="Times,serif" font-size="16.00">HASHSEGMENT</text>
</g>
<!-- hash&#45;&gt;segment -->
<g id="edge1" class="edge"><title>hash:f0&#45;&gt;segment:f0</title>
<path fill="none" stroke="black" d="M123.812,-189C132.359,-189 141.227,-189 150.02,-189"/>
<polygon fill="black" stroke="black" points="150.283,-192.5 160.283,-189 150.283,-185.5 150.283,-192.5"/>
</g>
<!-- bucket -->
<g id="node3" class="node"><title>bucket</title>
<polygon fill="white" stroke="black" points="332.232,-171 332.232,-207 455.768,-207 455.768,-171 332.232,-171"/>
<text text-anchor="middle" x="394" y="-184.6" font-family="Times,serif" font-size="16.00">HASHBUCKET</text>
</g>
<!-- segment&#45;&gt;bucket -->
<g id="edge2" class="edge"><title>segment:f0&#45;&gt;bucket:f0</title>
<path fill="none" stroke="black" d="M295.998,-189C304.557,-189 313.336,-189 321.955,-189"/>
<polygon fill="black" stroke="black" points="321.977,-192.5 331.977,-189 321.977,-185.5 321.977,-192.5"/>
</g>
<!-- element -->
<g id="node4" class="node"><title>element</title>
<polygon fill="lightyellow" stroke="black" points="491.905,-45.8 491.905,-212.2 626.095,-212.2 626.095,-45.8 491.905,-45.8"/>
<text text-anchor="middle" x="559" y="-193.8" font-family="Times,serif" font-size="16.00">HASHELEMENT</text>
<text text-anchor="middle" x="559" y="-174.6" font-family="Times,serif" font-size="16.00">			</text>
<polyline fill="none" stroke="black" points="491.905,-165.8 626.095,-165.8 "/>
<text text-anchor="middle" x="559" y="-147.4" font-family="Times,serif" font-size="16.00">*link</text>
<text text-anchor="middle" x="559" y="-128.2" font-family="Times,serif" font-size="16.00">			</text>
<polyline fill="none" stroke="black" points="491.905,-119.4 626.095,-119.4 "/>
<text text-anchor="middle" x="559" y="-101" font-family="Times,serif" font-size="16.00">hashvalue</text>
<text text-anchor="middle" x="559" y="-81.8" font-family="Times,serif" font-size="16.00">			</text>
<polyline fill="none" stroke="black" points="491.905,-73 626.095,-73 "/>
<text text-anchor="middle" x="559" y="-54.6" font-family="Times,serif" font-size="16.00">RelationData</text>
</g>
<!-- bucket&#45;&gt;element -->
<g id="edge3" class="edge"><title>bucket:f0&#45;&gt;element:f0</title>
<path fill="none" stroke="black" d="M455.949,-189C464.454,-189 473.196,-189 481.728,-189"/>
<polygon fill="black" stroke="black" points="482,-192.5 492,-189 482,-185.5 482,-192.5"/>
</g>
<!-- 1element -->
<g id="node5" class="node"><title>1element</title>
<polygon fill="lightyellow" stroke="black" points="661.905,0.2 661.905,-166.2 796.095,-166.2 796.095,0.2 661.905,0.2"/>
<text text-anchor="middle" x="729" y="-147.8" font-family="Times,serif" font-size="16.00">HASHELEMENT</text>
<text text-anchor="middle" x="729" y="-128.6" font-family="Times,serif" font-size="16.00">			</text>
<polyline fill="none" stroke="black" points="661.905,-119.8 796.095,-119.8 "/>
<text text-anchor="middle" x="729" y="-101.4" font-family="Times,serif" font-size="16.00">*link</text>
<text text-anchor="middle" x="729" y="-82.2" font-family="Times,serif" font-size="16.00">			</text>
<polyline fill="none" stroke="black" points="661.905,-73.4 796.095,-73.4 "/>
<text text-anchor="middle" x="729" y="-55" font-family="Times,serif" font-size="16.00">hashvalue</text>
<text text-anchor="middle" x="729" y="-35.8" font-family="Times,serif" font-size="16.00">			</text>
<polyline fill="none" stroke="black" points="661.905,-27 796.095,-27 "/>
<text text-anchor="middle" x="729" y="-8.6" font-family="Times,serif" font-size="16.00">RelationData</text>
</g>
<!-- element&#45;&gt;1element -->
<g id="edge4" class="edge"><title>element:f1&#45;&gt;1element:f0</title>
<path fill="none" stroke="black" d="M626,-143C638,-143 643.25,-143 651.875,-143"/>
<polygon fill="black" stroke="black" points="652,-146.5 662,-143 652,-139.5 652,-146.5"/>
</g>
</g>
</svg>
