<?xml version="1.0" encoding="UTF-8" standalone="no"?>
<!DOCTYPE svg PUBLIC "-//W3C//DTD SVG 1.1//EN"
 "http://www.w3.org/Graphics/SVG/1.1/DTD/svg11.dtd">
<!-- Generated by graphviz version 2.32.0 (20130827.0619)
 -->
<!-- Title: g Pages: 1 -->
<svg width="820pt" height="220pt"
 viewBox="0.00 0.00 820.00 220.00" xmlns="http://www.w3.org/2000/svg" xmlns:xlink="http://www.w3.org/1999/xlink">
<g id="graph0" class="graph" transform="scale(1 1) rotate(0) translate(4 216)">
<title>g</title>
<defs>
<linearGradient id="l_0" gradientUnits="userSpaceOnUse" x1="-4" y1="-105.5" x2="817" y2="-105.5" >
<stop offset="0" style="stop-color:white;stop-opacity:1.;"/>
<stop offset="1" style="stop-color:lightyellow;stop-opacity:1.;"/>
</linearGradient>
</defs>
<polygon fill="url(#l_0)" stroke="none" points="-4,5 -4,-216 817,-216 817,5 -4,5"/>
<!-- hash -->
<g id="node1" class="node"><title>hash</title>
<polygon fill="lightblue" stroke="black" points="0.2336,-171 0.2336,-207 139.766,-207 139.766,-171 0.2336,-171"/>
<text text-anchor="middle" x="70" y="-184.6" font-family="Times,serif" font-size="16.00">SMgrRelationHash</text>
</g>
<!-- segment -->
<g id="node2" class="node"><title>segment</title>
<polygon fill="white" stroke="black" points="176.457,-171 176.457,-207 311.543,-207 311.543,-171 176.457,-171"/>
<text text-anchor="middle" x="244" y="-184.6" font-family="Times,serif" font-size="16.00">HASHSEGMENT</text>
</g>
<!-- hash&#45;&gt;segment -->
<g id="edge1" class="edge"><title>hash:f0&#45;&gt;segment:f0</title>
<path fill="none" stroke="black" d="M139.77,-189C148.4,-189 157.266,-189 166.01,-189"/>
<polygon fill="black" stroke="black" points="166.196,-192.5 176.196,-189 166.196,-185.5 166.196,-192.5"/>
</g>
<!-- bucket -->
<g id="node3" class="node"><title>bucket</title>
<polygon fill="white" stroke="black" points="348.232,-171 348.232,-207 471.768,-207 471.768,-171 348.232,-171"/>
<text text-anchor="middle" x="410" y="-184.6" font-family="Times,serif" font-size="16.00">HASHBUCKET</text>
</g>
<!-- segment&#45;&gt;bucket -->
<g id="edge2" class="edge"><title>segment:f0&#45;&gt;bucket:f0</title>
<path fill="none" stroke="black" d="M311.998,-189C320.557,-189 329.336,-189 337.955,-189"/>
<polygon fill="black" stroke="black" points="337.977,-192.5 347.977,-189 337.977,-185.5 337.977,-192.5"/>
</g>
<!-- element -->
<g id="node4" class="node"><title>element</title>
<polygon fill="lightyellow" stroke="black" points="507.905,-45.8 507.905,-212.2 642.095,-212.2 642.095,-45.8 507.905,-45.8"/>
<text text-anchor="middle" x="575" y="-193.8" font-family="Times,serif" font-size="16.00">HASHELEMENT</text>
<text text-anchor="middle" x="575" y="-174.6" font-family="Times,serif" font-size="16.00">			</text>
<polyline fill="none" stroke="black" points="507.905,-165.8 642.095,-165.8 "/>
<text text-anchor="middle" x="575" y="-147.4" font-family="Times,serif" font-size="16.00">*link</text>
<text text-anchor="middle" x="575" y="-128.2" font-family="Times,serif" font-size="16.00">			</text>
<polyline fill="none" stroke="black" points="507.905,-119.4 642.095,-119.4 "/>
<text text-anchor="middle" x="575" y="-101" font-family="Times,serif" font-size="16.00">hashvalue</text>
<text text-anchor="middle" x="575" y="-81.8" font-family="Times,serif" font-size="16.00">			</text>
<polyline fill="none" stroke="black" points="507.905,-73 642.095,-73 "/>
<text text-anchor="middle" x="575" y="-54.6" font-family="Times,serif" font-size="16.00">SmgrRelation</text>
</g>
<!-- bucket&#45;&gt;element -->
<g id="edge3" class="edge"><title>bucket:f0&#45;&gt;element:f0</title>
<path fill="none" stroke="black" d="M471.949,-189C480.454,-189 489.196,-189 497.728,-189"/>
<polygon fill="black" stroke="black" points="498,-192.5 508,-189 498,-185.5 498,-192.5"/>
</g>
<!-- 1element -->
<g id="node5" class="node"><title>1element</title>
<polygon fill="lightyellow" stroke="black" points="677.905,0.2 677.905,-166.2 812.095,-166.2 812.095,0.2 677.905,0.2"/>
<text text-anchor="middle" x="745" y="-147.8" font-family="Times,serif" font-size="16.00">HASHELEMENT</text>
<text text-anchor="middle" x="745" y="-128.6" font-family="Times,serif" font-size="16.00">			</text>
<polyline fill="none" stroke="black" points="677.905,-119.8 812.095,-119.8 "/>
<text text-anchor="middle" x="745" y="-101.4" font-family="Times,serif" font-size="16.00">*link</text>
<text text-anchor="middle" x="745" y="-82.2" font-family="Times,serif" font-size="16.00">			</text>
<polyline fill="none" stroke="black" points="677.905,-73.4 812.095,-73.4 "/>
<text text-anchor="middle" x="745" y="-55" font-family="Times,serif" font-size="16.00">hashvalue</text>
<text text-anchor="middle" x="745" y="-35.8" font-family="Times,serif" font-size="16.00">			</text>
<polyline fill="none" stroke="black" points="677.905,-27 812.095,-27 "/>
<text text-anchor="middle" x="745" y="-8.6" font-family="Times,serif" font-size="16.00">SmgrRelation</text>
</g>
<!-- element&#45;&gt;1element -->
<g id="edge4" class="edge"><title>element:f1&#45;&gt;1element:f0</title>
<path fill="none" stroke="black" d="M642,-143C654,-143 659.25,-143 667.875,-143"/>
<polygon fill="black" stroke="black" points="668,-146.5 678,-143 668,-139.5 668,-146.5"/>
</g>
</g>
</svg>
