<?xml version="1.0" encoding="UTF-8" standalone="no"?>
<!DOCTYPE svg PUBLIC "-//W3C//DTD SVG 1.1//EN"
 "http://www.w3.org/Graphics/SVG/1.1/DTD/svg11.dtd">
<!-- Generated by graphviz version 2.32.0 (20130827.0619)
 -->
<!-- Title: g Pages: 1 -->
<svg width="1606pt" height="616pt"
 viewBox="0.00 0.00 1606.00 616.00" xmlns="http://www.w3.org/2000/svg" xmlns:xlink="http://www.w3.org/1999/xlink">
<g id="graph0" class="graph" transform="scale(1 1) rotate(0) translate(4 612)">
<title>g</title>
<polygon fill="white" stroke="white" points="-4,5 -4,-612 1603,-612 1603,5 -4,5"/>
<!-- SysCache -->
<g id="node1" class="node"><title>SysCache</title>
<polygon fill="red" stroke="black" points="3.9496,-472 3.9496,-608 294.05,-608 294.05,-472 3.9496,-472"/>
<text text-anchor="middle" x="149" y="-589.6" font-family="Times,serif" font-size="16.00">CatCache *SysCache[lengthof(cacheinfo)]</text>
<polyline fill="none" stroke="black" points="3.9496,-580.8 294.05,-580.8 "/>
<text text-anchor="middle" x="149" y="-562.4" font-family="Times,serif" font-size="16.00">SysCache[0]</text>
<polyline fill="none" stroke="black" points="3.9496,-553.6 294.05,-553.6 "/>
<text text-anchor="middle" x="149" y="-535.2" font-family="Times,serif" font-size="16.00">SysCache[1]</text>
<polyline fill="none" stroke="black" points="3.9496,-526.4 294.05,-526.4 "/>
<text text-anchor="middle" x="149" y="-508" font-family="Times,serif" font-size="16.00">...</text>
<polyline fill="none" stroke="black" points="3.9496,-499.2 294.05,-499.2 "/>
<text text-anchor="middle" x="149" y="-480.8" font-family="Times,serif" font-size="16.00">SysCache[53]</text>
</g>
<!-- catcache -->
<g id="node2" class="node"><title>catcache</title>
<polygon fill="yellow" stroke="black" points="334.399,-324.8 334.399,-499.2 779.601,-499.2 779.601,-324.8 334.399,-324.8"/>
<text text-anchor="middle" x="557" y="-480.8" font-family="Times,serif" font-size="16.00">struct CatCache</text>
<polyline fill="none" stroke="black" points="334.399,-472 779.601,-472 "/>
<text text-anchor="middle" x="557" y="-453.6" font-family="Times,serif" font-size="16.00">id</text>
<text text-anchor="middle" x="557" y="-434.4" font-family="Times,serif" font-size="16.00">		</text>
<polyline fill="none" stroke="black" points="334.399,-425.6 779.601,-425.6 "/>
<text text-anchor="middle" x="557" y="-407.2" font-family="Times,serif" font-size="16.00">struct catcache *cc_next</text>
<text text-anchor="middle" x="557" y="-388" font-family="Times,serif" font-size="16.00">		</text>
<polyline fill="none" stroke="black" points="334.399,-379.2 779.601,-379.2 "/>
<text text-anchor="middle" x="557" y="-360.8" font-family="Times,serif" font-size="16.00">......</text>
<polyline fill="none" stroke="black" points="334.399,-352 779.601,-352 "/>
<text text-anchor="middle" x="403.933" y="-333.6" font-family="Times,serif" font-size="16.00">Dllist cc_bucket[0]</text>
<polyline fill="none" stroke="black" points="473.466,-324.8 473.466,-352 "/>
<text text-anchor="middle" x="543" y="-333.6" font-family="Times,serif" font-size="16.00">Dllist cc_bucket[1]</text>
<polyline fill="none" stroke="black" points="612.534,-324.8 612.534,-352 "/>
<text text-anchor="middle" x="626.534" y="-333.6" font-family="Times,serif" font-size="16.00">...</text>
<polyline fill="none" stroke="black" points="640.534,-324.8 640.534,-352 "/>
<text text-anchor="middle" x="710.067" y="-333.6" font-family="Times,serif" font-size="16.00">Dllist cc_bucket[n]</text>
</g>
<!-- SysCache&#45;&gt;catcache -->
<g id="edge11" class="edge"><title>SysCache:f3&#45;&gt;catcache:f0</title>
<path fill="none" stroke="black" d="M295,-486C308.406,-486 314.036,-486 323.918,-486"/>
<polygon fill="black" stroke="black" points="324,-489.5 334,-486 324,-482.5 324,-489.5"/>
</g>
<!-- 1catcache -->
<g id="node9" class="node"><title>1catcache</title>
<polygon fill="yellow" stroke="black" points="816.399,-379.8 816.399,-554.2 1261.6,-554.2 1261.6,-379.8 816.399,-379.8"/>
<text text-anchor="middle" x="1039" y="-535.8" font-family="Times,serif" font-size="16.00">struct CatCache</text>
<polyline fill="none" stroke="black" points="816.399,-527 1261.6,-527 "/>
<text text-anchor="middle" x="1039" y="-508.6" font-family="Times,serif" font-size="16.00">id</text>
<text text-anchor="middle" x="1039" y="-489.4" font-family="Times,serif" font-size="16.00">		</text>
<polyline fill="none" stroke="black" points="816.399,-480.6 1261.6,-480.6 "/>
<text text-anchor="middle" x="1039" y="-462.2" font-family="Times,serif" font-size="16.00">struct catcache *cc_next</text>
<text text-anchor="middle" x="1039" y="-443" font-family="Times,serif" font-size="16.00">		</text>
<polyline fill="none" stroke="black" points="816.399,-434.2 1261.6,-434.2 "/>
<text text-anchor="middle" x="1039" y="-415.8" font-family="Times,serif" font-size="16.00">......</text>
<polyline fill="none" stroke="black" points="816.399,-407 1261.6,-407 "/>
<text text-anchor="middle" x="885.933" y="-388.6" font-family="Times,serif" font-size="16.00">Dllist cc_bucket[0]</text>
<polyline fill="none" stroke="black" points="955.466,-379.8 955.466,-407 "/>
<text text-anchor="middle" x="1025" y="-388.6" font-family="Times,serif" font-size="16.00">Dllist cc_bucket[1]</text>
<polyline fill="none" stroke="black" points="1094.53,-379.8 1094.53,-407 "/>
<text text-anchor="middle" x="1108.53" y="-388.6" font-family="Times,serif" font-size="16.00">...</text>
<polyline fill="none" stroke="black" points="1122.53,-379.8 1122.53,-407 "/>
<text text-anchor="middle" x="1192.07" y="-388.6" font-family="Times,serif" font-size="16.00">Dllist cc_bucket[n]</text>
</g>
<!-- SysCache&#45;&gt;1catcache -->
<g id="edge12" class="edge"><title>SysCache:f1&#45;&gt;1catcache:f0</title>
<path fill="none" stroke="black" d="M295,-567C523.448,-567 582.44,-541.756 805.923,-541.017"/>
<polygon fill="black" stroke="black" points="806.006,-544.517 816,-541 805.994,-537.517 806.006,-544.517"/>
</g>
<!-- Dllist -->
<g id="node3" class="node"><title>Dllist</title>
<polygon fill="lightgreen" stroke="black" points="973.904,-151.2 973.904,-232.8 1104.1,-232.8 1104.1,-151.2 973.904,-151.2"/>
<text text-anchor="middle" x="1039" y="-214.4" font-family="Times,serif" font-size="16.00">struct Dllist</text>
<polyline fill="none" stroke="black" points="973.904,-205.6 1104.1,-205.6 "/>
<text text-anchor="middle" x="1039" y="-187.2" font-family="Times,serif" font-size="16.00">Dlelem *dll_head</text>
<polyline fill="none" stroke="black" points="973.904,-178.4 1104.1,-178.4 "/>
<text text-anchor="middle" x="1039" y="-160" font-family="Times,serif" font-size="16.00">Dlelem *dll_tail</text>
</g>
<!-- catcache&#45;&gt;Dllist -->
<g id="edge1" class="edge"><title>catcache:f2&#45;&gt;Dllist:f0</title>
<path fill="none" stroke="black" d="M404,-324C404,-70.2316 707.673,-215.059 962.802,-218.922"/>
<polygon fill="black" stroke="black" points="962.973,-222.423 973,-219 963.027,-215.423 962.973,-222.423"/>
</g>
<!-- Dllist1 -->
<g id="node6" class="node"><title>Dllist1</title>
<polygon fill="lightgreen" stroke="black" points="973.904,-275.2 973.904,-356.8 1104.1,-356.8 1104.1,-275.2 973.904,-275.2"/>
<text text-anchor="middle" x="1039" y="-338.4" font-family="Times,serif" font-size="16.00">struct Dllist</text>
<polyline fill="none" stroke="black" points="973.904,-329.6 1104.1,-329.6 "/>
<text text-anchor="middle" x="1039" y="-311.2" font-family="Times,serif" font-size="16.00">Dlelem *dll_head</text>
<polyline fill="none" stroke="black" points="973.904,-302.4 1104.1,-302.4 "/>
<text text-anchor="middle" x="1039" y="-284" font-family="Times,serif" font-size="16.00">Dlelem *dll_tail</text>
</g>
<!-- catcache&#45;&gt;Dllist1 -->
<g id="edge6" class="edge"><title>catcache:fn&#45;&gt;Dllist1:f0</title>
<path fill="none" stroke="black" d="M780,-338C862.287,-338 885.331,-342.598 962.758,-342.975"/>
<polygon fill="black" stroke="black" points="962.992,-346.476 973,-343 963.008,-339.476 962.992,-346.476"/>
</g>
<!-- catcache&#45;&gt;1catcache -->
<g id="edge14" class="edge"><title>catcache:f3&#45;&gt;1catcache:f0</title>
<path fill="none" stroke="black" d="M780,-402C839.952,-402 762.71,-524.678 806.049,-539.533"/>
<polygon fill="black" stroke="black" points="805.596,-543.004 816,-541 806.617,-536.079 805.596,-543.004"/>
</g>
<!-- Dlelem -->
<g id="node4" class="node"><title>Dlelem</title>
<polygon fill="lightblue" stroke="black" points="1298.46,-0 1298.46,-136 1429.54,-136 1429.54,-0 1298.46,-0"/>
<text text-anchor="middle" x="1364" y="-117.6" font-family="Times,serif" font-size="16.00">struct Dlelem</text>
<polyline fill="none" stroke="black" points="1298.46,-108.8 1429.54,-108.8 "/>
<text text-anchor="middle" x="1364" y="-90.4" font-family="Times,serif" font-size="16.00">Dlelem *dle_next</text>
<polyline fill="none" stroke="black" points="1298.46,-81.6 1429.54,-81.6 "/>
<text text-anchor="middle" x="1364" y="-63.2" font-family="Times,serif" font-size="16.00">Dlelem *dle_prev</text>
<polyline fill="none" stroke="black" points="1298.46,-54.4 1429.54,-54.4 "/>
<text text-anchor="middle" x="1364" y="-36" font-family="Times,serif" font-size="16.00">void *dle_val</text>
<polyline fill="none" stroke="black" points="1298.46,-27.2 1429.54,-27.2 "/>
<text text-anchor="middle" x="1364" y="-8.8" font-family="Times,serif" font-size="16.00">Dllist *dle_list</text>
</g>
<!-- Dllist&#45;&gt;Dlelem -->
<g id="edge2" class="edge"><title>Dllist:f1&#45;&gt;Dlelem:f0</title>
<path fill="none" stroke="black" d="M1105,-192C1192.77,-192 1205.84,-127.23 1287.92,-122.297"/>
<polygon fill="black" stroke="black" points="1288.11,-125.793 1298,-122 1287.9,-118.796 1288.11,-125.793"/>
</g>
<!-- Dlelem2 -->
<g id="node5" class="node"><title>Dlelem2</title>
<polygon fill="lightblue" stroke="black" points="1466.46,-0 1466.46,-136 1597.54,-136 1597.54,-0 1466.46,-0"/>
<text text-anchor="middle" x="1532" y="-117.6" font-family="Times,serif" font-size="16.00">struct Dlelem</text>
<polyline fill="none" stroke="black" points="1466.46,-108.8 1597.54,-108.8 "/>
<text text-anchor="middle" x="1532" y="-90.4" font-family="Times,serif" font-size="16.00">Dlelem *dle_next</text>
<polyline fill="none" stroke="black" points="1466.46,-81.6 1597.54,-81.6 "/>
<text text-anchor="middle" x="1532" y="-63.2" font-family="Times,serif" font-size="16.00">Dlelem *dle_prev</text>
<polyline fill="none" stroke="black" points="1466.46,-54.4 1597.54,-54.4 "/>
<text text-anchor="middle" x="1532" y="-36" font-family="Times,serif" font-size="16.00">void *dle_val</text>
<polyline fill="none" stroke="black" points="1466.46,-27.2 1597.54,-27.2 "/>
<text text-anchor="middle" x="1532" y="-8.8" font-family="Times,serif" font-size="16.00">Dllist *dle_list</text>
</g>
<!-- Dllist&#45;&gt;Dlelem2 -->
<g id="edge5" class="edge"><title>Dllist:f2&#45;&gt;Dlelem2:f0</title>
<path fill="none" stroke="black" d="M1105,-165C1249.72,-165 1292.4,-189.835 1430,-145 1444.1,-140.404 1446.55,-128.951 1456.01,-124.161"/>
<polygon fill="black" stroke="black" points="1456.97,-127.534 1466,-122 1455.49,-120.692 1456.97,-127.534"/>
</g>
<!-- Dlelem&#45;&gt;Dlelem2 -->
<g id="edge3" class="edge"><title>Dlelem:f1&#45;&gt;Dlelem2:f1</title>
<path fill="none" stroke="black" d="M1430,-95C1442,-95 1447.25,-95 1455.88,-95"/>
<polygon fill="black" stroke="black" points="1456,-98.5001 1466,-95 1456,-91.5001 1456,-98.5001"/>
</g>
<!-- Dlelem2&#45;&gt;Dlelem -->
<g id="edge4" class="edge"><title>Dlelem2:f2&#45;&gt;Dlelem:f2</title>
<path fill="none" stroke="black" d="M1466,-68C1454,-68 1448.75,-68 1440.12,-68"/>
<polygon fill="black" stroke="black" points="1440,-64.5001 1430,-68 1440,-71.5001 1440,-64.5001"/>
</g>
<!-- Dlelem4 -->
<g id="node7" class="node"><title>Dlelem4</title>
<polygon fill="lightblue" stroke="black" points="1298.46,-194 1298.46,-330 1429.54,-330 1429.54,-194 1298.46,-194"/>
<text text-anchor="middle" x="1364" y="-311.6" font-family="Times,serif" font-size="16.00">struct Dlelem</text>
<polyline fill="none" stroke="black" points="1298.46,-302.8 1429.54,-302.8 "/>
<text text-anchor="middle" x="1364" y="-284.4" font-family="Times,serif" font-size="16.00">Dlelem *dle_next</text>
<polyline fill="none" stroke="black" points="1298.46,-275.6 1429.54,-275.6 "/>
<text text-anchor="middle" x="1364" y="-257.2" font-family="Times,serif" font-size="16.00">Dlelem *dle_prev</text>
<polyline fill="none" stroke="black" points="1298.46,-248.4 1429.54,-248.4 "/>
<text text-anchor="middle" x="1364" y="-230" font-family="Times,serif" font-size="16.00">void *dle_val</text>
<polyline fill="none" stroke="black" points="1298.46,-221.2 1429.54,-221.2 "/>
<text text-anchor="middle" x="1364" y="-202.8" font-family="Times,serif" font-size="16.00">Dllist *dle_list</text>
</g>
<!-- Dllist1&#45;&gt;Dlelem4 -->
<g id="edge7" class="edge"><title>Dllist1:f1&#45;&gt;Dlelem4:f0</title>
<path fill="none" stroke="black" d="M1105,-316C1187.26,-316 1210.35,-316 1287.76,-316"/>
<polygon fill="black" stroke="black" points="1288,-319.5 1298,-316 1288,-312.5 1288,-319.5"/>
</g>
<!-- Dlelem6 -->
<g id="node8" class="node"><title>Dlelem6</title>
<polygon fill="lightblue" stroke="black" points="1466.46,-194 1466.46,-330 1597.54,-330 1597.54,-194 1466.46,-194"/>
<text text-anchor="middle" x="1532" y="-311.6" font-family="Times,serif" font-size="16.00">struct Dlelem</text>
<polyline fill="none" stroke="black" points="1466.46,-302.8 1597.54,-302.8 "/>
<text text-anchor="middle" x="1532" y="-284.4" font-family="Times,serif" font-size="16.00">Dlelem *dle_next</text>
<polyline fill="none" stroke="black" points="1466.46,-275.6 1597.54,-275.6 "/>
<text text-anchor="middle" x="1532" y="-257.2" font-family="Times,serif" font-size="16.00">Dlelem *dle_prev</text>
<polyline fill="none" stroke="black" points="1466.46,-248.4 1597.54,-248.4 "/>
<text text-anchor="middle" x="1532" y="-230" font-family="Times,serif" font-size="16.00">void *dle_val</text>
<polyline fill="none" stroke="black" points="1466.46,-221.2 1597.54,-221.2 "/>
<text text-anchor="middle" x="1532" y="-202.8" font-family="Times,serif" font-size="16.00">Dllist *dle_list</text>
</g>
<!-- Dllist1&#45;&gt;Dlelem6 -->
<g id="edge10" class="edge"><title>Dllist1:f2&#45;&gt;Dlelem6:f0</title>
<path fill="none" stroke="black" d="M1105,-289C1193.61,-289 1210.1,-327.799 1298,-339 1356.2,-346.416 1373.69,-355.453 1430,-339 1444.24,-334.84 1446.61,-323.142 1456.02,-318.223"/>
<polygon fill="black" stroke="black" points="1457,-321.591 1466,-316 1455.48,-314.759 1457,-321.591"/>
</g>
<!-- Dlelem4&#45;&gt;Dlelem6 -->
<g id="edge8" class="edge"><title>Dlelem4:f1&#45;&gt;Dlelem6:f1</title>
<path fill="none" stroke="black" d="M1430,-289C1442,-289 1447.25,-289 1455.88,-289"/>
<polygon fill="black" stroke="black" points="1456,-292.5 1466,-289 1456,-285.5 1456,-292.5"/>
</g>
<!-- Dlelem6&#45;&gt;Dlelem4 -->
<g id="edge9" class="edge"><title>Dlelem6:f2&#45;&gt;Dlelem4:f2</title>
<path fill="none" stroke="black" d="M1466,-262C1454,-262 1448.75,-262 1440.12,-262"/>
<polygon fill="black" stroke="black" points="1440,-258.5 1430,-262 1440,-265.5 1440,-258.5"/>
</g>
<!-- catcacheheader -->
<g id="node10" class="node"><title>catcacheheader</title>
<polygon fill="pink" stroke="black" points="0.3648,-333 0.3648,-453 297.635,-453 297.635,-333 0.3648,-333"/>
<text text-anchor="middle" x="149" y="-434.6" font-family="Times,serif" font-size="16.00">struct CatCacheHeader</text>
<text text-anchor="middle" x="149" y="-415.4" font-family="Times,serif" font-size="16.00">		</text>
<polyline fill="none" stroke="black" points="0.3648,-406.6 297.635,-406.6 "/>
<text text-anchor="middle" x="149" y="-388.2" font-family="Times,serif" font-size="16.00">CatCache *ch_caches (链表头部)</text>
<text text-anchor="middle" x="149" y="-369" font-family="Times,serif" font-size="16.00">		</text>
<polyline fill="none" stroke="black" points="0.3648,-360.2 297.635,-360.2 "/>
<text text-anchor="middle" x="149" y="-341.8" font-family="Times,serif" font-size="16.00">int ch_ntup (所有CatCache中缓存元组总数)</text>
</g>
<!-- catcacheheader&#45;&gt;catcache -->
<g id="edge13" class="edge"><title>catcacheheader:f0&#45;&gt;catcache:f0</title>
<path fill="none" stroke="black" d="M298,-430C323.427,-430 309.887,-471.357 324.354,-482.989"/>
<polygon fill="black" stroke="black" points="323.411,-486.361 334,-486 325.497,-479.679 323.411,-486.361"/>
</g>
</g>
</svg>
